<svg xmlns="http://www.w3.org/2000/svg" xmlns:xlink="http://www.w3.org/1999/xlink" width="493" height="431" viewBox="0 0 493 431">
  <defs>
    <clipPath id="clip-path">
      <rect id="Rectangle_9" data-name="Rectangle 9" width="493" height="431" transform="translate(232 1583.323)" fill="#fff" stroke="#707070" stroke-width="1"/>
    </clipPath>
    <clipPath id="clip-path-2">
      <rect id="Retângulo_451" data-name="Retângulo 451" width="410.645" height="431.678" transform="translate(0)" fill="#fff" stroke="#707070" stroke-width="1.04"/>
    </clipPath>
  </defs>
  <g id="conquista" transform="translate(-232 -1583.323)" clip-path="url(#clip-path)">
    <g id="Grupo_de_máscara_7" data-name="Grupo de máscara 7" transform="translate(273.177 1582.963)" clip-path="url(#clip-path-2)">
      <g id="stamp-document" transform="translate(2.333 49.552)">
        <path id="Caminho_1388" data-name="Caminho 1388" d="M411.411,254.628c0-80.114-46.352-152.194-117.087-182.061C223.569,42.7,142.667,61.059,89.944,118.933S23.272,262.567,54.709,335.568H394.8a204,204,0,0,0,16.612-80.94Z" transform="translate(-19.431 -58.424)" fill="#f0f2ff"/>
        <line id="Linha_1" data-name="Linha 1" x2="363.981" transform="translate(20.999 277.143)" fill="none" stroke="#4550e5" stroke-linecap="round" stroke-linejoin="round" stroke-width="3.629"/>
        <line id="Linha_2" data-name="Linha 2" x2="11.666" transform="translate(0 277.143)" fill="none" stroke="#4550e5" stroke-linecap="round" stroke-linejoin="round" stroke-width="3.629"/>
        <line id="Linha_3" data-name="Linha 3" x2="11.666" transform="translate(394.313 277.143)" fill="none" stroke="#4550e5" stroke-linecap="round" stroke-linejoin="round" stroke-width="3.629"/>
        <path id="Caminho_1390" data-name="Caminho 1390" d="M317.045,346.5a6.348,6.348,0,0,1-1.705,4.4,5.739,5.739,0,0,1-4.174,1.828H161.145a6.084,6.084,0,0,1-5.926-6.23V129.335a6.084,6.084,0,0,1,5.926-6.23H285.079a5.736,5.736,0,0,1,4.2,1.816l26.034,27.371a6.347,6.347,0,0,1,1.727,4.415Z" transform="translate(14.085 -35.655)" fill="#fff"/>
        <path id="Caminho_1391" data-name="Caminho 1391" d="M317.045,346.5a6.348,6.348,0,0,1-1.705,4.4,5.739,5.739,0,0,1-4.174,1.828H161.145a6.084,6.084,0,0,1-5.926-6.23V129.335a6.084,6.084,0,0,1,5.926-6.23H285.079a5.736,5.736,0,0,1,4.2,1.816l26.034,27.371a6.347,6.347,0,0,1,1.727,4.415Z" transform="translate(14.085 -35.655)" fill="none" stroke="#4550e5" stroke-linejoin="round" stroke-width="3.629"/>
        <ellipse id="Elipse_10" data-name="Elipse 10" cx="29.538" cy="31.051" rx="29.538" ry="31.051" transform="translate(257.82 230.148)" fill="none" stroke="#4550e5" stroke-miterlimit="10" stroke-width="3.629"/>
        <path id="Caminho_1392" data-name="Caminho 1392" d="M235.541,254.437l11.807,12.411L266.527,243.6" transform="translate(37.071 6.764)" fill="none" stroke="#4550e5" stroke-linecap="round" stroke-linejoin="round" stroke-width="3.629"/>
        <line id="Linha_4" data-name="Linha 4" x2="91.462" transform="translate(207.702 161.915)" fill="none" stroke="#4550e5" stroke-linecap="round" stroke-linejoin="round" stroke-width="3.629"/>
        <line id="Linha_5" data-name="Linha 5" x2="39.245" transform="translate(216.009 143.323)" fill="none" stroke="#4550e5" stroke-linecap="round" stroke-linejoin="round" stroke-width="3.629"/>
        <line id="Linha_6" data-name="Linha 6" x2="91.462" transform="translate(207.702 180.555)" fill="none" stroke="#4550e5" stroke-linecap="round" stroke-linejoin="round" stroke-width="3.629"/>
        <line id="Linha_7" data-name="Linha 7" x2="91.462" transform="translate(207.702 199.146)" fill="none" stroke="#4550e5" stroke-linecap="round" stroke-linejoin="round" stroke-width="3.629"/>
        <path id="Caminho_1393" data-name="Caminho 1393" d="M258.109,148.361A5.509,5.509,0,0,0,263.476,154h23.332a5.874,5.874,0,0,0-1.166-1.864l-25.8-27.372a7.031,7.031,0,0,0-1.727-1.226Z" transform="translate(43.528 -35.501)" fill="#d6daff" stroke="#4550e5" stroke-linejoin="round" stroke-width="3.629"/>
        <path id="Caminho_1394" data-name="Caminho 1394" d="M93.189,247.043H238.832c10.309,0,18.666,8.785,18.666,19.622v18.887a4.79,4.79,0,0,1-4.666,4.905H79.189a4.79,4.79,0,0,1-4.666-4.905V266.664C74.523,255.828,82.88,247.043,93.189,247.043Z" transform="translate(-9.007 7.976)" fill="#fff"/>
        <path id="Caminho_1395" data-name="Caminho 1395" d="M180.295,187.551H125a11.028,11.028,0,0,1-3.78-.74c2.893,6.328,10.78,28.4,10.78,81.431h41.3c0-53.027,7.887-75.1,10.78-81.431a11.027,11.027,0,0,1-3.78.74Z" transform="translate(4.356 -13.226)" fill="#fff"/>
        <path id="Caminho_1396" data-name="Caminho 1396" d="M241.988,294.087a5.352,5.352,0,0,1-5.086,3.875H91.172a5.352,5.352,0,0,1-5.086-3.875L81.42,279.37H246.7Z" transform="translate(-7.033 19.357)" fill="#d6daff"/>
        <path id="Caminho_1397" data-name="Caminho 1397" d="M93.189,247.043H238.832c10.309,0,18.666,8.785,18.666,19.622v18.887a4.79,4.79,0,0,1-4.666,4.905H79.189a4.79,4.79,0,0,1-4.666-4.905V266.664C74.523,255.828,82.88,247.043,93.189,247.043Z" transform="translate(-9.007 7.976)" fill="none" stroke="#4550e5" stroke-linejoin="round" stroke-width="3.629"/>
        <path id="Caminho_1398" data-name="Caminho 1398" d="M180.295,187.551H125a11.028,11.028,0,0,1-3.78-.74c2.893,6.328,10.78,28.4,10.78,81.431h41.3c0-53.027,7.887-75.1,10.78-81.431a11.027,11.027,0,0,1-3.78.74Z" transform="translate(4.356 -13.226)" fill="none" stroke="#4550e5" stroke-linejoin="round" stroke-width="3.629"/>
        <path id="Caminho_1399" data-name="Caminho 1399" d="M241.988,294.087a5.352,5.352,0,0,1-5.086,3.875H91.172a5.352,5.352,0,0,1-5.086-3.875L81.42,279.37H246.7Z" transform="translate(-7.033 19.357)" fill="none" stroke="#4550e5" stroke-linejoin="round" stroke-width="3.629"/>
        <line id="Linha_8" data-name="Linha 8" x2="42.044" transform="translate(135.98 236.379)" fill="none" stroke="#4550e5" stroke-linejoin="round" stroke-width="3.629"/>
        <rect id="Retângulo_452" data-name="Retângulo 452" width="76.763" height="49.643" rx="7.256" transform="translate(118.62 124.682)" fill="#fff"/>
        <rect id="Retângulo_453" data-name="Retângulo 453" width="76.763" height="49.643" rx="7.256" transform="translate(118.62 124.682)" fill="none" stroke="#4550e5" stroke-linejoin="round" stroke-width="3.629"/>
      </g>
    </g>
  </g>
</svg>
