<svg xmlns="http://www.w3.org/2000/svg" xmlns:xlink="http://www.w3.org/1999/xlink" width="237" height="237" viewBox="0 0 237 237">
  <defs>
    <clipPath id="clip-path">
      <rect id="Retângulo_451" data-name="Retângulo 451" width="237" height="237" transform="translate(2732.357 42.357)" fill="#fff" stroke="#707070" stroke-width="1"/>
    </clipPath>
  </defs>
  <g id="Grupo_de_máscara_14" data-name="Grupo de máscara 14" transform="translate(-2732.357 -42.357)" clip-path="url(#clip-path)">
    <g id="photographer-male" transform="translate(2733.349 68.931)">
      <path id="Caminho_1509" data-name="Caminho 1509" d="M252.735,163.855A108.053,108.053,0,1,0,46.274,208.427H243.119A107.727,107.727,0,0,0,252.735,163.855Z" transform="translate(-25.825 -55.75)" fill="#f0f2ff"/>
      <line id="Linha_64" data-name="Linha 64" x2="210.703" transform="translate(12.156 152.57)" fill="none" stroke="#4550e5" stroke-linecap="round" stroke-linejoin="round" stroke-width="3.489"/>
      <line id="Linha_65" data-name="Linha 65" x2="6.753" transform="translate(0 152.57)" fill="none" stroke="#4550e5" stroke-linecap="round" stroke-linejoin="round" stroke-width="3.489"/>
      <line id="Linha_66" data-name="Linha 66" x2="6.753" transform="translate(228.261 152.57)" fill="none" stroke="#4550e5" stroke-linecap="round" stroke-linejoin="round" stroke-width="3.489"/>
      <path id="Caminho_1510" data-name="Caminho 1510" d="M211.069,172.548a41.87,41.87,0,0,0-41.87,41.978v20.26H252.94v-20.26a41.87,41.87,0,0,0-41.87-41.978Z" transform="translate(-55.743 -82.109)" fill="#fff" stroke="#4550e5" stroke-linecap="round" stroke-linejoin="round" stroke-width="3.489"/>
      <path id="Caminho_1511" data-name="Caminho 1511" d="M197.563,175.409A41.9,41.9,0,0,0,169.2,215.172v20.26h28.364Z" transform="translate(-55.743 -82.754)" fill="#d6daff"/>
      <line id="Linha_67" data-name="Linha 67" y2="19.449" transform="translate(128.313 133.12)" fill="none" stroke="#4550e5" stroke-linecap="round" stroke-linejoin="round" stroke-width="3.489"/>
      <path id="Caminho_1512" data-name="Caminho 1512" d="M240.716,175.409a41.9,41.9,0,0,1,28.364,39.763v20.26H240.716Z" transform="translate(-71.884 -82.754)" fill="#d6daff"/>
      <line id="Linha_68" data-name="Linha 68" y2="19.449" transform="translate(182.339 133.12)" fill="none" stroke="#4550e5" stroke-linecap="round" stroke-linejoin="round" stroke-width="3.489"/>
      <path id="Caminho_1513" data-name="Caminho 1513" d="M197.563,175.409A41.9,41.9,0,0,0,169.2,215.172v20.26h28.364Z" transform="translate(-55.743 -82.754)" fill="none" stroke="#4550e5" stroke-linecap="round" stroke-linejoin="round" stroke-width="3.489"/>
      <path id="Caminho_1514" data-name="Caminho 1514" d="M240.716,175.409a41.9,41.9,0,0,1,28.364,39.763v20.26H240.716Z" transform="translate(-71.884 -82.754)" fill="none" stroke="#4550e5" stroke-linecap="round" stroke-linejoin="round" stroke-width="3.489"/>
      <path id="Caminho_1515" data-name="Caminho 1515" d="M218.6,183.693a17.559,17.559,0,0,0,16.019-10.346,41.248,41.248,0,0,0-6.564-2.08v-9.184H209.149v9.184a41.25,41.25,0,0,0-6.564,2.08A17.559,17.559,0,0,0,218.6,183.693Z" transform="translate(-63.278 -79.747)" fill="#fff"/>
      <path id="Caminho_1516" data-name="Caminho 1516" d="M218.6,183.693a17.559,17.559,0,0,0,16.019-10.346,41.248,41.248,0,0,0-6.564-2.08v-9.184H209.149v9.184a41.25,41.25,0,0,0-6.564,2.08A17.559,17.559,0,0,0,218.6,183.693Z" transform="translate(-63.278 -79.747)" fill="none" stroke="#4550e5" stroke-linecap="round" stroke-linejoin="round" stroke-width="3.489"/>
      <rect id="Retângulo_473" data-name="Retângulo 473" width="45.922" height="28.364" rx="3.489" transform="translate(132.365 117.452)" stroke-width="3.489" stroke="#4550e5" stroke-linecap="round" stroke-linejoin="round" fill="#fff"/>
      <rect id="Retângulo_474" data-name="Retângulo 474" width="45.922" height="17.559" transform="translate(132.365 122.855)" stroke-width="3.489" stroke="#4550e5" stroke-linecap="round" stroke-linejoin="round" fill="#d6daff"/>
      <path id="Caminho_1517" data-name="Caminho 1517" d="M229.536,202.24a3.269,3.269,0,0,0-2.89-1.783H212.814a3.269,3.269,0,0,0-2.89,1.783,14.452,14.452,0,0,0-2.35,7.78v24.312h24.312V210.02A14.452,14.452,0,0,0,229.536,202.24Z" transform="translate(-64.404 -88.407)" fill="#fff" stroke="#4550e5" stroke-linecap="round" stroke-linejoin="round" stroke-width="3.489"/>
      <circle id="Elipse_28" data-name="Elipse 28" cx="12.156" cy="12.156" r="12.156" transform="translate(143.17 117.452)" stroke-width="3.489" stroke="#4550e5" stroke-linecap="round" stroke-linejoin="round" fill="#fff"/>
      <circle id="Elipse_29" data-name="Elipse 29" cx="6.753" cy="6.753" r="6.753" transform="translate(148.572 122.855)" fill="#d6daff"/>
      <path id="Caminho_1518" data-name="Caminho 1518" d="M221.309,214.412a6.753,6.753,0,0,0-4.808,11.481l9.536-9.536a6.645,6.645,0,0,0-4.727-1.945Z" transform="translate(-65.983 -91.557)" fill="#fff"/>
      <circle id="Elipse_30" data-name="Elipse 30" cx="6.753" cy="6.753" r="6.753" transform="translate(148.572 122.855)" stroke-width="3.489" stroke="#4550e5" stroke-linecap="round" stroke-linejoin="round" fill="none"/>
      <path id="Caminho_1519" data-name="Caminho 1519" d="M244.938,185.548v12.966h-6.753V185.548a13.939,13.939,0,0,0-2.7-9.022v-8.617a21.421,21.421,0,0,1,9.455,17.64Z" transform="translate(-70.703 -81.062)" fill="#d6daff" stroke="#4550e5" stroke-linecap="round" stroke-linejoin="round" stroke-width="3.489"/>
      <path id="Caminho_1520" data-name="Caminho 1520" d="M198.852,185.548v12.966h6.753V185.548a13.939,13.939,0,0,1,2.7-9.022v-8.617A21.421,21.421,0,0,0,198.852,185.548Z" transform="translate(-62.436 -81.062)" fill="#d6daff" stroke="#4550e5" stroke-linecap="round" stroke-linejoin="round" stroke-width="3.489"/>
      <path id="Caminho_1521" data-name="Caminho 1521" d="M240.838,115.749V109a27.013,27.013,0,1,0-54.026,0v6.753a5.4,5.4,0,0,0,0,10.805h.324a27.013,27.013,0,0,0,53.378,0h.324a5.4,5.4,0,0,0,0-10.805Z" transform="translate(-58.499 -61.67)" fill="#fff" stroke="#4550e5" stroke-linecap="round" stroke-linejoin="round" stroke-width="3.489"/>
      <circle id="Elipse_31" data-name="Elipse 31" cx="3.377" cy="3.377" r="3.377" transform="translate(136.417 62.075)" fill="#d6daff"/>
      <circle id="Elipse_32" data-name="Elipse 32" cx="3.377" cy="3.377" r="3.377" transform="translate(167.482 62.075)" fill="#d6daff"/>
      <path id="Caminho_1522" data-name="Caminho 1522" d="M229.015,149.139a11.67,11.67,0,0,1-16.208,0" transform="translate(-65.585 -76.826)" fill="none" stroke="#4550e5" stroke-linecap="round" stroke-linejoin="round" stroke-width="3.489"/>
      <path id="Caminho_1523" data-name="Caminho 1523" d="M212.189,128.3a4.4,4.4,0,0,0-8.1,0" transform="translate(-63.617 -71.518)" fill="none" stroke="#4550e5" stroke-linecap="round" stroke-linejoin="round" stroke-width="3.489"/>
      <path id="Caminho_1524" data-name="Caminho 1524" d="M240.1,128.3a4.4,4.4,0,0,0-8.1,0" transform="translate(-69.915 -71.518)" fill="none" stroke="#4550e5" stroke-linecap="round" stroke-linejoin="round" stroke-width="3.489"/>
      <path id="Caminho_1525" data-name="Caminho 1525" d="M247.132,99.646a23.394,23.394,0,0,0-4.808-3.377c5.024.216,9-1.162,9.32-3.431s-4.322-5.538-10.535-6.429a25.771,25.771,0,0,0-8.1.243s3.107-.513,4.754-.729c6.213-.783,10.967-3.593,10.643-6.24s-5.646-4.187-11.859-3.4a21.151,21.151,0,0,0-7.591,2.323c.486-.378.972-.756,1.432-1.189,4.646-4.187,6.969-9.184,5.187-11.183s-7.023-.216-11.7,3.971a19.342,19.342,0,0,0-5.4,7.213c-.729-.189-1.432-.378-2.161-.513a24.312,24.312,0,0,0,2.7-4.133c2.89-5.565,3.3-11.075.918-12.318s-6.051,1.945-8.914,7.159c-2.863-5.078-6.834-8.1-9.1-7.023s-1.972,6.753.918,12.318a24.311,24.311,0,0,0,2.7,4.133,8.97,8.97,0,0,0-2.161.513,19.341,19.341,0,0,0-5.4-7.213c-4.646-4.187-9.887-5.97-11.7-3.971s.54,7,5.187,11.183c.459.432.945.81,1.432,1.189a21.178,21.178,0,0,0-7.564-2.323c-6.213-.783-11.535.729-11.886,3.4s4.43,5.4,10.643,6.24c1.891.243,4.754.729,4.754.729a36.089,36.089,0,0,0-8.1-.243c-6.186.891-10.805,3.755-10.535,6.429s4.3,3.647,9.32,3.431a23.393,23.393,0,0,0-4.808,3.377c-4.646,4.214-6.942,9.239-5.133,11.237,1.432,1.567,5.024.729,8.752-1.756a23.389,23.389,0,0,0-1.378,2.458c-2.7,5.646-2.971,11.156-.54,12.318,1.486.729,3.647-.378,5.7-2.7A5.4,5.4,0,0,1,184,110.829c2.7,0,4,1.837,4,4.592a27.661,27.661,0,0,0,.594-11.481c2.7.945,7.51-3.107,7.51-3.107V94.351a75.1,75.1,0,0,0,14.911,2.971,74.637,74.637,0,0,0,14.911-2.944v6.483s4.673,4.052,7.51,3.107a27.662,27.662,0,0,0,.594,11.481c0-2.7,1.3-4.592,4-4.592a5.4,5.4,0,0,1,1.7,10.535c2.08,2.269,4.214,3.377,5.7,2.7,2.431-1.162,2.188-6.672-.54-12.318a23.4,23.4,0,0,0-1.378-2.458c3.755,2.485,7.321,3.323,8.752,1.756C254.074,108.884,251.778,103.86,247.132,99.646Z" transform="translate(-55.689 -56.75)" fill="#fff"/>
      <path id="Caminho_1526" data-name="Caminho 1526" d="M247.132,99.646a23.394,23.394,0,0,0-4.808-3.377c5.024.216,9-1.162,9.32-3.431s-4.322-5.538-10.535-6.429a25.771,25.771,0,0,0-8.1.243s3.107-.513,4.754-.729c6.213-.783,10.967-3.593,10.643-6.24s-5.646-4.187-11.859-3.4a21.151,21.151,0,0,0-7.591,2.323c.486-.378.972-.756,1.432-1.189,4.646-4.187,6.969-9.184,5.187-11.183s-7.023-.216-11.7,3.971a19.342,19.342,0,0,0-5.4,7.213c-.729-.189-1.432-.378-2.161-.513a24.312,24.312,0,0,0,2.7-4.133c2.89-5.565,3.3-11.075.918-12.318s-6.051,1.945-8.914,7.159c-2.863-5.078-6.834-8.1-9.1-7.023s-1.972,6.753.918,12.318a24.311,24.311,0,0,0,2.7,4.133,8.97,8.97,0,0,0-2.161.513,19.341,19.341,0,0,0-5.4-7.213c-4.646-4.187-9.887-5.97-11.7-3.971s.54,7,5.187,11.183c.459.432.945.81,1.432,1.189a21.178,21.178,0,0,0-7.564-2.323c-6.213-.783-11.535.729-11.886,3.4s4.43,5.4,10.643,6.24c1.891.243,4.754.729,4.754.729a36.089,36.089,0,0,0-8.1-.243c-6.186.891-10.805,3.755-10.535,6.429s4.3,3.647,9.32,3.431a23.393,23.393,0,0,0-4.808,3.377c-4.646,4.214-6.942,9.239-5.133,11.237,1.432,1.567,5.024.729,8.752-1.756a23.389,23.389,0,0,0-1.378,2.458c-2.7,5.646-2.971,11.156-.54,12.318,1.486.729,3.647-.378,5.7-2.7A5.4,5.4,0,0,1,184,110.829c2.7,0,4,1.837,4,4.592a27.661,27.661,0,0,0,.594-11.481c2.7.945,7.51-3.107,7.51-3.107V94.351a75.1,75.1,0,0,0,14.911,2.971,74.637,74.637,0,0,0,14.911-2.944v6.483s4.673,4.052,7.51,3.107a27.662,27.662,0,0,0,.594,11.481c0-2.7,1.3-4.592,4-4.592a5.4,5.4,0,0,1,1.7,10.535c2.08,2.269,4.214,3.377,5.7,2.7,2.431-1.162,2.188-6.672-.54-12.318a23.4,23.4,0,0,0-1.378-2.458c3.755,2.485,7.321,3.323,8.752,1.756C254.074,108.884,251.778,103.86,247.132,99.646Z" transform="translate(-55.689 -56.75)" fill="none" stroke="#4550e5" stroke-linecap="round" stroke-linejoin="round" stroke-width="3.489"/>
      <path id="Caminho_1527" data-name="Caminho 1527" d="M81.983,286.74c0,2.242,18.747,4.052,41.87,4.052s41.87-1.81,41.87-4.052-18.747-4.16-41.87-4.16S81.983,284.5,81.983,286.74Z" transform="translate(-36.061 -106.941)" fill="#f0f2ff"/>
      <rect id="Retângulo_475" data-name="Retângulo 475" width="24.312" height="21.611" transform="translate(76.988 86.387)" fill="#d6daff"/>
      <rect id="Retângulo_476" data-name="Retângulo 476" width="24.312" height="21.611" transform="translate(76.988 86.387)" stroke-width="3.489" stroke="#4550e5" stroke-linecap="round" stroke-linejoin="round" fill="none"/>
      <rect id="Retângulo_477" data-name="Retângulo 477" width="37.818" height="24.312" rx="3.489" transform="translate(70.234 71.53)" stroke-width="3.489" stroke="#4550e5" stroke-linecap="round" stroke-linejoin="round" fill="#fff"/>
      <rect id="Retângulo_478" data-name="Retângulo 478" width="32.416" height="21.611" rx="3.489" transform="translate(72.936 107.998)" stroke-width="3.489" stroke="#4550e5" stroke-linecap="round" stroke-linejoin="round" fill="#fff"/>
      <rect id="Retângulo_479" data-name="Retângulo 479" width="27.013" height="13.507" rx="1.744" transform="translate(75.637 76.933)" fill="#d6daff"/>
      <path id="Caminho_1528" data-name="Caminho 1528" d="M128.462,168.643h-6.753a1.351,1.351,0,0,1-1.351-1.351v-10.7a1.351,1.351,0,0,1,1.351-1.351h20.26Z" transform="translate(-44.721 -78.204)" fill="#fff"/>
      <rect id="Retângulo_480" data-name="Retângulo 480" width="27.013" height="13.507" rx="1.744" transform="translate(75.637 76.933)" stroke-width="3.489" stroke="#4550e5" stroke-linecap="round" stroke-linejoin="round" fill="none"/>
      <path id="Caminho_1529" data-name="Caminho 1529" d="M140.842,209.318H130.037a2.7,2.7,0,0,0-2.7,2.7v8.1h16.208v-8.1A2.7,2.7,0,0,0,140.842,209.318Z" transform="translate(-46.296 -90.407)" fill="#d6daff" stroke="#4550e5" stroke-linecap="round" stroke-linejoin="round" stroke-width="3.489"/>
      <rect id="Retângulo_481" data-name="Retângulo 481" width="70.234" height="40.52" rx="3.489" transform="translate(51.325 137.712)" fill="#fff"/>
      <rect id="Retângulo_482" data-name="Retângulo 482" width="70.234" height="21.611" transform="translate(51.325 148.518)" fill="#d6daff"/>
      <rect id="Retângulo_483" data-name="Retângulo 483" width="70.234" height="21.611" transform="translate(51.325 148.518)" stroke-width="3.489" stroke="#4550e5" stroke-linecap="round" stroke-linejoin="round" fill="none"/>
      <path id="Caminho_1530" data-name="Caminho 1530" d="M167.624,226.761h-2.7a2.7,2.7,0,0,0-2.7,2.7v2.7h8.1v-2.7A2.7,2.7,0,0,0,167.624,226.761Z" transform="translate(-54.169 -94.344)" fill="#d6daff" stroke="#4550e5" stroke-linecap="round" stroke-linejoin="round" stroke-width="3.489"/>
      <path id="Caminho_1531" data-name="Caminho 1531" d="M104.041,226.761h-5.4a2.7,2.7,0,0,0-2.7,2.7v2.7h10.805v-2.7A2.7,2.7,0,0,0,104.041,226.761Z" transform="translate(-39.21 -94.344)" fill="#d6daff" stroke="#4550e5" stroke-linecap="round" stroke-linejoin="round" stroke-width="3.489"/>
      <rect id="Retângulo_484" data-name="Retângulo 484" width="70.234" height="40.52" rx="3.489" transform="translate(51.325 137.712)" stroke-width="3.489" stroke="#4550e5" stroke-linecap="round" stroke-linejoin="round" fill="none"/>
      <path id="Caminho_1532" data-name="Caminho 1532" d="M162.785,262.774a4.052,4.052,0,0,0,0-8.1h-4.052v8.1Z" transform="translate(-53.382 -100.642)" fill="#fff" stroke="#4550e5" stroke-linecap="round" stroke-linejoin="round" stroke-width="3.489"/>
      <path id="Caminho_1533" data-name="Caminho 1533" d="M142.192,223.273H123.931a2.7,2.7,0,0,0-2.431,1.486l-2.7,5.4a18.909,18.909,0,0,0-2,8.455V271.9h32.416V238.427a18.909,18.909,0,0,0-2-8.455l-2.7-5.4A2.7,2.7,0,0,0,142.192,223.273Z" transform="translate(-43.918 -93.556)" fill="#fff"/>
      <path id="Caminho_1534" data-name="Caminho 1534" d="M142.192,223.273H123.931a2.7,2.7,0,0,0-2.431,1.486l-2.7,5.4a18.909,18.909,0,0,0-2,8.455V271.9h32.416V238.427a18.909,18.909,0,0,0-2-8.455l-2.7-5.4A2.7,2.7,0,0,0,142.192,223.273Z" transform="translate(-43.918 -93.556)" fill="none" stroke="#4550e5" stroke-linecap="round" stroke-linejoin="round" stroke-width="3.489"/>
      <circle id="Elipse_33" data-name="Elipse 33" cx="16.208" cy="16.208" r="16.208" transform="translate(72.936 143.115)" fill="#fff"/>
      <circle id="Elipse_34" data-name="Elipse 34" cx="10.805" cy="10.805" r="10.805" transform="translate(78.338 148.518)" fill="#d6daff"/>
      <path id="Caminho_1535" data-name="Caminho 1535" d="M127.005,266a10.811,10.811,0,1,1,15.289-15.289Z" transform="translate(-45.507 -99.034)" fill="#fff"/>
      <circle id="Elipse_35" data-name="Elipse 35" cx="16.208" cy="16.208" r="16.208" transform="translate(72.936 143.115)" stroke-width="3.489" stroke="#4550e5" stroke-linecap="round" stroke-linejoin="round" fill="none"/>
      <circle id="Elipse_36" data-name="Elipse 36" cx="10.805" cy="10.805" r="10.805" transform="translate(78.338 148.518)" stroke-width="3.489" stroke="#4550e5" stroke-linecap="round" stroke-linejoin="round" fill="none"/>
      <line id="Linha_69" data-name="Linha 69" x2="16.208" transform="translate(81.04 137.712)" fill="none" stroke="#4550e5" stroke-linecap="round" stroke-linejoin="round" stroke-width="3.489"/>
      <line id="Linha_70" data-name="Linha 70" y2="21.611" transform="translate(62.13 148.518)" fill="none" stroke="#4550e5" stroke-linecap="round" stroke-linejoin="round" stroke-width="3.489"/>
      <line id="Linha_71" data-name="Linha 71" x2="8.104" transform="translate(59.429 143.115)" fill="none" stroke="#4550e5" stroke-linecap="round" stroke-linejoin="round" stroke-width="3.489"/>
    </g>
  </g>
</svg>
