<svg xmlns="http://www.w3.org/2000/svg" width="246.169" height="188.28" viewBox="0 0 246.169 188.28">
  <g id="front_end" data-name="front end" transform="translate(1.745)">
    <path id="Caminho_1537" data-name="Caminho 1537" d="M258.039,168.269A111.577,111.577,0,1,0,44.816,214.294H248.109A111.159,111.159,0,0,0,258.039,168.269Z" transform="translate(-25.123 -56.698)" fill="#f0f2ff"/>
    <line id="Linha_75" data-name="Linha 75" x2="217.575" transform="translate(12.552 157.596)" fill="none" stroke="#4550e5" stroke-linecap="round" stroke-linejoin="round" stroke-width="3.489"/>
    <line id="Linha_76" data-name="Linha 76" x2="6.974" transform="translate(0 157.596)" fill="none" stroke="#4550e5" stroke-linecap="round" stroke-linejoin="round" stroke-width="3.489"/>
    <line id="Linha_77" data-name="Linha 77" x2="6.974" transform="translate(235.706 157.596)" fill="none" stroke="#4550e5" stroke-linecap="round" stroke-linejoin="round" stroke-width="3.489"/>
    <path id="Caminho_1538" data-name="Caminho 1538" d="M193.948,153.98a43.124,43.124,0,0,1,27.615,9.958h0a40.642,40.642,0,0,0,5.858-20.949v-33.64a33.473,33.473,0,0,0-34.087-33.473,34.2,34.2,0,0,0-32.859,34.589v28.843a48.452,48.452,0,0,0,6.053,24.463,43.18,43.18,0,0,1,27.42-9.791Z" transform="translate(-50.293 -60.54)" fill="#fff" stroke="#4550e5" stroke-linecap="round" stroke-linejoin="round" stroke-width="3.489"/>
    <path id="Caminho_1539" data-name="Caminho 1539" d="M234.739,216.8a43.236,43.236,0,1,0-86.472,0v20.921h86.472Z" transform="translate(-47.848 -80.12)" fill="none" stroke="#4550e5" stroke-linecap="round" stroke-linejoin="round" stroke-width="3.489"/>
    <path id="Caminho_1540" data-name="Caminho 1540" d="M191.5,173.56A43.235,43.235,0,0,0,148.267,216.8v20.924h69.289a8.173,8.173,0,0,1-7.7,5.579H199.87v16.736h9.986a25.159,25.159,0,0,0,24.882-22.315h0V216.8A43.237,43.237,0,0,0,191.5,173.56Z" transform="translate(-47.848 -80.12)" fill="#fff"/>
    <path id="Caminho_1541" data-name="Caminho 1541" d="M191.5,173.56A43.235,43.235,0,0,0,148.267,216.8v20.924h69.289a8.173,8.173,0,0,1-7.7,5.579H199.87v16.736h9.986a25.159,25.159,0,0,0,24.882-22.315h0V216.8A43.237,43.237,0,0,0,191.5,173.56Z" transform="translate(-47.848 -80.12)" fill="none" stroke="#4550e5" stroke-linecap="round" stroke-linejoin="round" stroke-width="3.489"/>
    <path id="Caminho_1542" data-name="Caminho 1542" d="M219.063,179.852a38.718,38.718,0,0,1-4.937,10.46,52.051,52.051,0,0,1-9.456,10.8c-3.292,2.789-7.978,8.006-7.978,14.338,0-6.3-4.63-11.437-7.922-14.282a53,53,0,0,1-9.6-10.99,38.8,38.8,0,0,1-4.742-10.153v-.167a43.18,43.18,0,0,1,44.635-.006Z" transform="translate(-53.092 -80.136)" fill="#d6daff" stroke="#4550e5" stroke-linecap="round" stroke-linejoin="round" stroke-width="3.489"/>
    <path id="Caminho_1543" data-name="Caminho 1543" d="M209.657,178.436a13.947,13.947,0,0,1-19.526,0V163.094h19.526Z" transform="translate(-56.239 -78.022)" fill="#fff"/>
    <path id="Caminho_1544" data-name="Caminho 1544" d="M209.657,163.094v15.342a13.947,13.947,0,0,1-19.526,0V163.094Z" transform="translate(-56.239 -78.022)" fill="none" stroke="#4550e5" stroke-linecap="round" stroke-linejoin="round" stroke-width="3.489"/>
    <path id="Caminho_1545" data-name="Caminho 1545" d="M233.441,222.4v22.539a8.145,8.145,0,0,1-8.145,8.145" transform="translate(-63.287 -89.909)" fill="none" stroke="#4550e5" stroke-linecap="round" stroke-linejoin="round" stroke-width="3.489"/>
    <line id="Linha_78" data-name="Linha 78" y2="22.315" transform="translate(143.655 135.281)" fill="none" stroke="#4550e5" stroke-linecap="round" stroke-linejoin="round" stroke-width="3.489"/>
    <path id="Caminho_1546" data-name="Caminho 1546" d="M221.845,117.723v-6.974a27.894,27.894,0,0,0-55.788,0v6.974a5.579,5.579,0,0,0,0,11.158h.335a27.894,27.894,0,0,0,55.119,0h.335a5.579,5.579,0,0,0,0-11.158Z" transform="translate(-50.295 -61.94)" fill="#fff"/>
    <circle id="Elipse_37" data-name="Elipse 37" cx="3.487" cy="3.487" r="3.487" transform="translate(124.129 64.151)" fill="#d6daff"/>
    <circle id="Elipse_38" data-name="Elipse 38" cx="3.487" cy="3.487" r="3.487" transform="translate(156.208 64.151)" fill="#d6daff"/>
    <path id="Caminho_1547" data-name="Caminho 1547" d="M191.875,150.011a12.218,12.218,0,0,0,16.736,0" transform="translate(-56.588 -75.4)" fill="none" stroke="#4550e5" stroke-linecap="round" stroke-linejoin="round" stroke-width="3.489"/>
    <path id="Caminho_1548" data-name="Caminho 1548" d="M221.845,117.723v-6.974a27.894,27.894,0,0,0-55.788,0v6.974a5.579,5.579,0,0,0,0,11.158h.335a27.894,27.894,0,0,0,55.119,0h.335a5.579,5.579,0,0,0,0-11.158Z" transform="translate(-50.295 -61.94)" fill="none" stroke="#4550e5" stroke-linecap="round" stroke-linejoin="round" stroke-width="3.489"/>
    <line id="Linha_79" data-name="Linha 79" x1="6.946" y1="4.184" transform="translate(129.708 52.993)" fill="none" stroke="#4550e5" stroke-linecap="round" stroke-linejoin="round" stroke-width="3.489"/>
    <path id="Caminho_1549" data-name="Caminho 1549" d="M187.687,129.952a2.789,2.789,0,1,0,2.789,2.789,2.789,2.789,0,0,0-2.789-2.789Z" transform="translate(-55.19 -71.38)" fill="#4550e5"/>
    <line id="Linha_80" data-name="Linha 80" y1="4.184" x2="6.946" transform="translate(150.657 52.993)" fill="none" stroke="#4550e5" stroke-linecap="round" stroke-linejoin="round" stroke-width="3.489"/>
    <path id="Caminho_1550" data-name="Caminho 1550" d="M215.6,129.952a2.789,2.789,0,1,0,2.789,2.789A2.789,2.789,0,0,0,215.6,129.952Z" transform="translate(-60.783 -71.38)" fill="#4550e5"/>
    <path id="Caminho_1551" data-name="Caminho 1551" d="M193.334,75.876a34.2,34.2,0,0,0-32.859,34.589v28.843a48.564,48.564,0,0,0,6.053,24.491,37.127,37.127,0,0,0,16.262,14.672l-.167-.2q-1.59-1.674-3.013-3.431l-.446-.642c-.948-1.227-1.9-2.483-2.789-3.766a30.188,30.188,0,0,1-1.98-3.4l-.335-.642a36.013,36.013,0,0,1-2.427-5.969v-.167c-2.036-6.862-2.789-15.76-2.789-30.907,0-10.209,5.579-22.762,25.1-22.762s25.1,13.947,25.1,22.762c0,15.147-.7,24.045-2.789,30.907q-.418,1.367-.921,2.789h0a36.573,36.573,0,0,1-2.789,5.941h0l-.837,1.4a2.4,2.4,0,0,0-.279.446,54.645,54.645,0,0,1-6.332,7.559l-.558.642a41.534,41.534,0,0,0,16.737-14.812l.167-.279a40.642,40.642,0,0,0,5.969-20.949v-33.64a33.473,33.473,0,0,0-34.087-33.473Z" transform="translate(-50.293 -60.54)" fill="#fff"/>
    <path id="Caminho_1552" data-name="Caminho 1552" d="M193.334,75.876a34.2,34.2,0,0,0-32.859,34.589v28.843a48.564,48.564,0,0,0,6.053,24.491,37.127,37.127,0,0,0,16.262,14.672l-.167-.2q-1.59-1.674-3.013-3.431l-.446-.642c-.948-1.227-1.9-2.483-2.789-3.766a30.188,30.188,0,0,1-1.98-3.4l-.335-.642a36.013,36.013,0,0,1-2.427-5.969v-.167c-2.036-6.862-2.789-15.76-2.789-30.907,0-10.209,5.579-22.762,25.1-22.762s25.1,13.947,25.1,22.762c0,15.147-.7,24.045-2.789,30.907q-.418,1.367-.921,2.789h0a36.573,36.573,0,0,1-2.789,5.941h0l-.837,1.4a2.4,2.4,0,0,0-.279.446,54.645,54.645,0,0,1-6.332,7.559l-.558.642a41.534,41.534,0,0,0,16.737-14.812l.167-.279a40.642,40.642,0,0,0,5.969-20.949v-33.64a33.473,33.473,0,0,0-34.087-33.473Z" transform="translate(-50.293 -60.54)" fill="none" stroke="#4550e5" stroke-linecap="round" stroke-linejoin="round" stroke-width="3.489"/>
    <path id="Caminho_1553" data-name="Caminho 1553" d="M208.262,260.776H198.5a8.368,8.368,0,0,0-8.368,8.368h0a8.368,8.368,0,0,0,8.368,8.368h9.763Z" transform="translate(-56.239 -97.6)" fill="#fff" stroke="#4550e5" stroke-linecap="round" stroke-linejoin="round" stroke-width="3.489"/>
    <line id="Linha_81" data-name="Linha 81" y1="16.737" transform="translate(152.023 163.175)" fill="none" stroke="#4550e5" stroke-linecap="round" stroke-linejoin="round" stroke-width="3.489"/>
    <path id="Caminho_1554" data-name="Caminho 1554" d="M85.472,285.892c0,2.315,26.36,4.184,58.857,4.184s58.857-1.869,58.857-4.184-26.332-4.184-58.857-4.184S85.472,283.576,85.472,285.892Z" transform="translate(-35.262 -101.796)" fill="#f0f2ff"/>
    <path id="Caminho_1555" data-name="Caminho 1555" d="M171.339,258.656h6.527l-15.7-47.95a3.292,3.292,0,0,0-3.124-2.259h-4.073Z" transform="translate(-49.19 -87.112)" fill="#fff" stroke="#4550e5" stroke-linejoin="round" stroke-width="3.489"/>
    <path id="Caminho_1556" data-name="Caminho 1556" d="M91.833,258.655h63.794l-16.374-50.21H79.978a3.347,3.347,0,0,0-2.789,1.339,3.236,3.236,0,0,0-.446,2.929Z" transform="translate(-33.479 -87.112)" fill="#fff"/>
    <path id="Caminho_1557" data-name="Caminho 1557" d="M91.833,258.655h63.794l-16.374-50.21H79.978a3.347,3.347,0,0,0-2.789,1.339,3.236,3.236,0,0,0-.446,2.929Z" transform="translate(-33.479 -87.112)" fill="none" stroke="#4550e5" stroke-linejoin="round" stroke-width="3.489"/>
    <path id="Caminho_1558" data-name="Caminho 1558" d="M95.937,271.241h66.946v8.368h-60.5a6.471,6.471,0,0,1-6.444-6.527Z" transform="translate(-37.36 -99.698)" fill="#fff" stroke="#4550e5" stroke-linejoin="round" stroke-width="3.489"/>
    <path id="Caminho_1559" data-name="Caminho 1559" d="M179.665,271.241h32.078v1.841a6.527,6.527,0,0,1-6.527,6.527H179.665Z" transform="translate(-54.141 -99.698)" fill="#fff" stroke="#4550e5" stroke-linejoin="round" stroke-width="3.489"/>
    <path id="Caminho_1560" data-name="Caminho 1560" d="M91.833,258.655h63.794l-16.374-50.21H79.978a3.347,3.347,0,0,0-2.789,1.339,3.236,3.236,0,0,0-.446,2.929Z" transform="translate(-33.479 -87.112)" fill="none" stroke="#4550e5" stroke-linejoin="round" stroke-width="3.489"/>
    <path id="Caminho_1561" data-name="Caminho 1561" d="M134.683,235.505c.391-1.367,2.064-1.367,3.013,0l5.1,7.336,5.133,7.336c.948,1.367.474,3.1-.893,3.1H132.674a2.51,2.51,0,0,1-2.148-3.1c.837-2.789,1.255-4.407,2.064-7.336Z" transform="translate(-44.278 -92.33)" fill="#fff" stroke="#4550e5" stroke-linejoin="round" stroke-width="3.489"/>
    <path id="Caminho_1562" data-name="Caminho 1562" d="M138.987,242.356c.335,1.674.5,2.483.865,4.156" transform="translate(-45.988 -93.909)" fill="none" stroke="#2d86fa" stroke-linecap="round" stroke-linejoin="round" stroke-width="3.489"/>
    <path id="Caminho_1563" data-name="Caminho 1563" d="M140.536,251.182c-.642,0-1.032.614-.893,1.4a1.729,1.729,0,0,0,1.478,1.395,1.032,1.032,0,0,0,.893-1.395,1.674,1.674,0,0,0-1.478-1.395Z" transform="translate(-46.114 -95.678)" fill="#2d86fa"/>
    <path id="Caminho_1564" data-name="Caminho 1564" d="M113.819,233.273c1.172,5.774-1.841,10.46-6.722,10.432s-9.763-4.714-10.907-10.488,1.841-10.46,6.695-10.432S112.648,227.5,113.819,233.273Z" transform="translate(-37.361 -89.986)" fill="#fff" stroke="#4550e5" stroke-linejoin="round" stroke-width="3.489"/>
    <path id="Caminho_1565" data-name="Caminho 1565" d="M102.335,230.7c-.642,0-1.032.614-.893,1.4a1.674,1.674,0,0,0,1.451,1.4c.669,0,1.06-.614.893-1.4a1.646,1.646,0,0,0-1.451-1.395Z" transform="translate(-38.457 -91.573)" fill="#4550e5"/>
    <path id="Caminho_1566" data-name="Caminho 1566" d="M104.659,240.227a3.989,3.989,0,0,0,3.264,2.455,2.343,2.343,0,0,0,2.259-2.455" transform="translate(-39.108 -93.482)" fill="none" stroke="#4550e5" stroke-linecap="round" stroke-linejoin="round" stroke-width="3.489"/>
    <path id="Caminho_1567" data-name="Caminho 1567" d="M98.031,225.994l14.923,4.268" transform="translate(-37.779 -90.629)" fill="none" stroke="#4550e5" stroke-miterlimit="10" stroke-width="3.489"/>
    <path id="Caminho_1568" data-name="Caminho 1568" d="M109.663,228.889h-1.227c-.948,0-1.534.921-1.311,2.064l.279,1.451a2.483,2.483,0,0,0,2.176,2.064h1.144c.976,0,1.562-.921,1.339-2.064l-.307-1.423a2.51,2.51,0,0,0-2.148-2.092Z" transform="translate(-39.592 -91.21)" fill="#4550e5"/>
  </g>
</svg>
