<svg xmlns="http://www.w3.org/2000/svg" width="23.993" height="23.988" viewBox="0 0 23.993 23.988">
  <path id="Icon_awesome-instagram" data-name="Icon awesome-instagram" d="M11.994,8.081a6.15,6.15,0,1,0,6.15,6.15A6.14,6.14,0,0,0,11.994,8.081Zm0,10.149a4,4,0,1,1,4-4,4.006,4.006,0,0,1-4,4ZM19.83,7.83A1.435,1.435,0,1,1,18.4,6.4,1.431,1.431,0,0,1,19.83,7.83ZM23.9,9.286A7.1,7.1,0,0,0,21.966,4.26,7.146,7.146,0,0,0,16.94,2.322c-1.98-.112-7.917-.112-9.9,0A7.135,7.135,0,0,0,2.017,4.254,7.122,7.122,0,0,0,.079,9.28c-.112,1.98-.112,7.917,0,9.9A7.1,7.1,0,0,0,2.017,24.2a7.155,7.155,0,0,0,5.026,1.938c1.98.112,7.917.112,9.9,0A7.1,7.1,0,0,0,21.966,24.2,7.146,7.146,0,0,0,23.9,19.178c.112-1.98.112-7.911,0-9.892ZM21.345,21.3a4.048,4.048,0,0,1-2.28,2.28c-1.579.626-5.326.482-7.071.482s-5.5.139-7.071-.482a4.048,4.048,0,0,1-2.28-2.28c-.626-1.579-.482-5.326-.482-7.071s-.139-5.5.482-7.071a4.048,4.048,0,0,1,2.28-2.28C6.5,4.254,10.249,4.4,11.994,4.4s5.5-.139,7.071.482a4.048,4.048,0,0,1,2.28,2.28c.626,1.579.482,5.326.482,7.071S21.971,19.729,21.345,21.3Z" transform="translate(0.005 -2.238)" fill="#fff"/>
</svg>
