<svg xmlns="http://www.w3.org/2000/svg" width="27.406" height="22.258" viewBox="0 0 27.406 22.258">
  <path id="Icon_awesome-twitter" data-name="Icon awesome-twitter" d="M24.589,8.928c.017.243.017.487.017.73,0,7.425-5.652,15.981-15.981,15.981A15.872,15.872,0,0,1,0,23.118a11.619,11.619,0,0,0,1.356.07,11.249,11.249,0,0,0,6.973-2.4,5.627,5.627,0,0,1-5.252-3.9,7.083,7.083,0,0,0,1.061.087,5.941,5.941,0,0,0,1.478-.191,5.618,5.618,0,0,1-4.5-5.512v-.07a5.657,5.657,0,0,0,2.539.713A5.625,5.625,0,0,1,1.913,4.407a15.965,15.965,0,0,0,11.581,5.878A6.341,6.341,0,0,1,13.355,9a5.622,5.622,0,0,1,9.721-3.843A11.058,11.058,0,0,0,26.64,3.8a5.6,5.6,0,0,1-2.469,3.1,11.26,11.26,0,0,0,3.234-.869,12.074,12.074,0,0,1-2.817,2.9Z" transform="translate(0 -3.381)" fill="#fff"/>
</svg>
