<svg xmlns="http://www.w3.org/2000/svg" width="250" height="230" viewBox="0 0 250 230"><g transform="translate(-186 -738)"><rect width="250" height="230" transform="translate(186 738)" fill="#fff"/><g transform="translate(189.66 759)"><path d="M258.039,168.269A111.577,111.577,0,1,0,44.816,214.294H248.109A111.159,111.159,0,0,0,258.039,168.269Z" transform="translate(-25.123 -56.698)" fill="#f0f2ff"/><line x2="217.575" transform="translate(12.552 157.596)" stroke-width="3.489" stroke="#4550e5" stroke-linecap="round" stroke-linejoin="round" fill="none"/><line x2="6.974" transform="translate(0 157.596)" stroke-width="3.489" stroke="#4550e5" stroke-linecap="round" stroke-linejoin="round" fill="none"/><line x2="6.974" transform="translate(235.706 157.596)" stroke-width="3.489" stroke="#4550e5" stroke-linecap="round" stroke-linejoin="round" fill="none"/><path d="M193.948,153.98a43.124,43.124,0,0,1,27.615,9.958h0a40.642,40.642,0,0,0,5.858-20.949v-33.64a33.473,33.473,0,0,0-34.087-33.473,34.2,34.2,0,0,0-32.859,34.589v28.843a48.452,48.452,0,0,0,6.053,24.463,43.18,43.18,0,0,1,27.42-9.791Z" transform="translate(-50.293 -60.54)" fill="#fff" stroke="#4550e5" stroke-linecap="round" stroke-linejoin="round" stroke-width="3.489"/><path d="M234.739,216.8a43.236,43.236,0,1,0-86.472,0v20.921h86.472Z" transform="translate(-47.848 -80.12)" fill="none" stroke="#4550e5" stroke-linecap="round" stroke-linejoin="round" stroke-width="3.489"/><path d="M191.5,173.56A43.235,43.235,0,0,0,148.267,216.8v20.924h69.289a8.173,8.173,0,0,1-7.7,5.579H199.87v16.736h9.986a25.159,25.159,0,0,0,24.882-22.315h0V216.8A43.237,43.237,0,0,0,191.5,173.56Z" transform="translate(-47.848 -80.12)" fill="#fff"/><path d="M191.5,173.56A43.235,43.235,0,0,0,148.267,216.8v20.924h69.289a8.173,8.173,0,0,1-7.7,5.579H199.87v16.736h9.986a25.159,25.159,0,0,0,24.882-22.315h0V216.8A43.237,43.237,0,0,0,191.5,173.56Z" transform="translate(-47.848 -80.12)" fill="none" stroke="#4550e5" stroke-linecap="round" stroke-linejoin="round" stroke-width="3.489"/><path d="M219.063,179.852a38.718,38.718,0,0,1-4.937,10.46,52.051,52.051,0,0,1-9.456,10.8c-3.292,2.789-7.978,8.006-7.978,14.338,0-6.3-4.63-11.437-7.922-14.282a53,53,0,0,1-9.6-10.99,38.8,38.8,0,0,1-4.742-10.153v-.167a43.18,43.18,0,0,1,44.635-.006Z" transform="translate(-53.092 -80.136)" fill="#d6daff" stroke="#4550e5" stroke-linecap="round" stroke-linejoin="round" stroke-width="3.489"/><path d="M209.657,178.436a13.947,13.947,0,0,1-19.526,0V163.094h19.526Z" transform="translate(-56.239 -78.022)" fill="#fff"/><path d="M209.657,163.094v15.342a13.947,13.947,0,0,1-19.526,0V163.094Z" transform="translate(-56.239 -78.022)" fill="none" stroke="#4550e5" stroke-linecap="round" stroke-linejoin="round" stroke-width="3.489"/><path d="M233.441,222.4v22.539a8.145,8.145,0,0,1-8.145,8.145" transform="translate(-63.287 -89.909)" fill="none" stroke="#4550e5" stroke-linecap="round" stroke-linejoin="round" stroke-width="3.489"/><line y2="22.315" transform="translate(143.655 135.281)" stroke-width="3.489" stroke="#4550e5" stroke-linecap="round" stroke-linejoin="round" fill="none"/><path d="M221.845,117.723v-6.974a27.894,27.894,0,0,0-55.788,0v6.974a5.579,5.579,0,0,0,0,11.158h.335a27.894,27.894,0,0,0,55.119,0h.335a5.579,5.579,0,0,0,0-11.158Z" transform="translate(-50.295 -61.94)" fill="#fff"/><circle cx="3.487" cy="3.487" r="3.487" transform="translate(124.129 64.151)" fill="#d6daff"/><circle cx="3.487" cy="3.487" r="3.487" transform="translate(156.208 64.151)" fill="#d6daff"/><path d="M191.875,150.011a12.218,12.218,0,0,0,16.736,0" transform="translate(-56.588 -75.4)" fill="none" stroke="#4550e5" stroke-linecap="round" stroke-linejoin="round" stroke-width="3.489"/><path d="M221.845,117.723v-6.974a27.894,27.894,0,0,0-55.788,0v6.974a5.579,5.579,0,0,0,0,11.158h.335a27.894,27.894,0,0,0,55.119,0h.335a5.579,5.579,0,0,0,0-11.158Z" transform="translate(-50.295 -61.94)" fill="none" stroke="#4550e5" stroke-linecap="round" stroke-linejoin="round" stroke-width="3.489"/><line x1="6.946" y1="4.184" transform="translate(129.708 52.993)" stroke-width="3.489" stroke="#4550e5" stroke-linecap="round" stroke-linejoin="round" fill="none"/><path d="M187.687,129.952a2.789,2.789,0,1,0,2.789,2.789,2.789,2.789,0,0,0-2.789-2.789Z" transform="translate(-55.19 -71.38)" fill="#4550e5"/><line y1="4.184" x2="6.946" transform="translate(150.657 52.993)" stroke-width="3.489" stroke="#4550e5" stroke-linecap="round" stroke-linejoin="round" fill="none"/><path d="M215.6,129.952a2.789,2.789,0,1,0,2.789,2.789A2.789,2.789,0,0,0,215.6,129.952Z" transform="translate(-60.783 -71.38)" fill="#4550e5"/><path d="M193.334,75.876a34.2,34.2,0,0,0-32.859,34.589v28.843a48.564,48.564,0,0,0,6.053,24.491,37.127,37.127,0,0,0,16.262,14.672l-.167-.2q-1.59-1.674-3.013-3.431l-.446-.642c-.948-1.227-1.9-2.483-2.789-3.766a30.188,30.188,0,0,1-1.98-3.4l-.335-.642a36.013,36.013,0,0,1-2.427-5.969v-.167c-2.036-6.862-2.789-15.76-2.789-30.907,0-10.209,5.579-22.762,25.1-22.762s25.1,13.947,25.1,22.762c0,15.147-.7,24.045-2.789,30.907q-.418,1.367-.921,2.789h0a36.573,36.573,0,0,1-2.789,5.941h0l-.837,1.4a2.4,2.4,0,0,0-.279.446,54.645,54.645,0,0,1-6.332,7.559l-.558.642a41.534,41.534,0,0,0,16.737-14.812l.167-.279a40.642,40.642,0,0,0,5.969-20.949v-33.64a33.473,33.473,0,0,0-34.087-33.473Z" transform="translate(-50.293 -60.54)" fill="#fff"/><path d="M193.334,75.876a34.2,34.2,0,0,0-32.859,34.589v28.843a48.564,48.564,0,0,0,6.053,24.491,37.127,37.127,0,0,0,16.262,14.672l-.167-.2q-1.59-1.674-3.013-3.431l-.446-.642c-.948-1.227-1.9-2.483-2.789-3.766a30.188,30.188,0,0,1-1.98-3.4l-.335-.642a36.013,36.013,0,0,1-2.427-5.969v-.167c-2.036-6.862-2.789-15.76-2.789-30.907,0-10.209,5.579-22.762,25.1-22.762s25.1,13.947,25.1,22.762c0,15.147-.7,24.045-2.789,30.907q-.418,1.367-.921,2.789h0a36.573,36.573,0,0,1-2.789,5.941h0l-.837,1.4a2.4,2.4,0,0,0-.279.446,54.645,54.645,0,0,1-6.332,7.559l-.558.642a41.534,41.534,0,0,0,16.737-14.812l.167-.279a40.642,40.642,0,0,0,5.969-20.949v-33.64a33.473,33.473,0,0,0-34.087-33.473Z" transform="translate(-50.293 -60.54)" fill="none" stroke="#4550e5" stroke-linecap="round" stroke-linejoin="round" stroke-width="3.489"/><path d="M208.262,260.776H198.5a8.368,8.368,0,0,0-8.368,8.368h0a8.368,8.368,0,0,0,8.368,8.368h9.763Z" transform="translate(-56.239 -97.6)" fill="#fff" stroke="#4550e5" stroke-linecap="round" stroke-linejoin="round" stroke-width="3.489"/><line y1="16.737" transform="translate(152.023 163.175)" stroke-width="3.489" stroke="#4550e5" stroke-linecap="round" stroke-linejoin="round" fill="none"/><path d="M85.472,285.892c0,2.315,26.36,4.184,58.857,4.184s58.857-1.869,58.857-4.184-26.332-4.184-58.857-4.184S85.472,283.576,85.472,285.892Z" transform="translate(-35.262 -101.796)" fill="#f0f2ff"/><path d="M171.339,258.656h6.527l-15.7-47.95a3.292,3.292,0,0,0-3.124-2.259h-4.073Z" transform="translate(-49.19 -87.112)" fill="#fff" stroke="#4550e5" stroke-linejoin="round" stroke-width="3.489"/><path d="M91.833,258.655h63.794l-16.374-50.21H79.978a3.347,3.347,0,0,0-2.789,1.339,3.236,3.236,0,0,0-.446,2.929Z" transform="translate(-33.479 -87.112)" fill="#fff"/><path d="M91.833,258.655h63.794l-16.374-50.21H79.978a3.347,3.347,0,0,0-2.789,1.339,3.236,3.236,0,0,0-.446,2.929Z" transform="translate(-33.479 -87.112)" fill="none" stroke="#4550e5" stroke-linejoin="round" stroke-width="3.489"/><path d="M95.937,271.241h66.946v8.368h-60.5a6.471,6.471,0,0,1-6.444-6.527Z" transform="translate(-37.36 -99.698)" fill="#fff" stroke="#4550e5" stroke-linejoin="round" stroke-width="3.489"/><path d="M179.665,271.241h32.078v1.841a6.527,6.527,0,0,1-6.527,6.527H179.665Z" transform="translate(-54.141 -99.698)" fill="#fff" stroke="#4550e5" stroke-linejoin="round" stroke-width="3.489"/><path d="M91.833,258.655h63.794l-16.374-50.21H79.978a3.347,3.347,0,0,0-2.789,1.339,3.236,3.236,0,0,0-.446,2.929Z" transform="translate(-33.479 -87.112)" fill="none" stroke="#4550e5" stroke-linejoin="round" stroke-width="3.489"/><path d="M134.683,235.505c.391-1.367,2.064-1.367,3.013,0l5.1,7.336,5.133,7.336c.948,1.367.474,3.1-.893,3.1H132.674a2.51,2.51,0,0,1-2.148-3.1c.837-2.789,1.255-4.407,2.064-7.336Z" transform="translate(-44.278 -92.33)" fill="#fff" stroke="#4550e5" stroke-linejoin="round" stroke-width="3.489"/><path d="M138.987,242.356c.335,1.674.5,2.483.865,4.156" transform="translate(-45.988 -93.909)" fill="none" stroke="#2d86fa" stroke-linecap="round" stroke-linejoin="round" stroke-width="3.489"/><path d="M140.536,251.182c-.642,0-1.032.614-.893,1.4a1.729,1.729,0,0,0,1.478,1.395,1.032,1.032,0,0,0,.893-1.395,1.674,1.674,0,0,0-1.478-1.395Z" transform="translate(-46.114 -95.678)" fill="#2d86fa"/><path d="M113.819,233.273c1.172,5.774-1.841,10.46-6.722,10.432s-9.763-4.714-10.907-10.488,1.841-10.46,6.695-10.432S112.648,227.5,113.819,233.273Z" transform="translate(-37.361 -89.986)" fill="#fff" stroke="#4550e5" stroke-linejoin="round" stroke-width="3.489"/><path d="M102.335,230.7c-.642,0-1.032.614-.893,1.4a1.674,1.674,0,0,0,1.451,1.4c.669,0,1.06-.614.893-1.4a1.646,1.646,0,0,0-1.451-1.395Z" transform="translate(-38.457 -91.573)" fill="#4550e5"/><path d="M104.659,240.227a3.989,3.989,0,0,0,3.264,2.455,2.343,2.343,0,0,0,2.259-2.455" transform="translate(-39.108 -93.482)" fill="none" stroke="#4550e5" stroke-linecap="round" stroke-linejoin="round" stroke-width="3.489"/><path d="M98.031,225.994l14.923,4.268" transform="translate(-37.779 -90.629)" fill="none" stroke="#4550e5" stroke-miterlimit="10" stroke-width="3.489"/><path d="M109.663,228.889h-1.227c-.948,0-1.534.921-1.311,2.064l.279,1.451a2.483,2.483,0,0,0,2.176,2.064h1.144c.976,0,1.562-.921,1.339-2.064l-.307-1.423a2.51,2.51,0,0,0-2.148-2.092Z" transform="translate(-39.592 -91.21)" fill="#4550e5"/></g></g></svg>