<svg xmlns="http://www.w3.org/2000/svg" xmlns:xlink="http://www.w3.org/1999/xlink" width="250" height="230" viewBox="0 0 250 230"><defs><clipPath id="a"><rect width="250" height="230" opacity="0.74" fill="#fff" stroke="#707070" stroke-width="1" transform="translate(1751.974 377.578)"/></clipPath></defs><g transform="translate(-1751.974 -377.578)" opacity="0.73" clip-path="url(#a)"><g transform="translate(1764.474 407.594)"><path d="M239.562,156.589a102.355,102.355,0,1,0-195.6,42.222H230.426A101.586,101.586,0,0,0,239.562,156.589Z" transform="translate(-25.897 -52.649)" fill="#f0f2ff"/><line x2="199.591" transform="translate(11.515 146.162)" stroke-width="3.485" stroke="#4550e5" stroke-linecap="round" stroke-linejoin="round" fill="none"/><line x2="6.398" transform="translate(0 146.162)" stroke-width="3.485" stroke="#4550e5" stroke-linecap="round" stroke-linejoin="round" fill="none"/><line x2="6.398" transform="translate(216.224 146.162)" stroke-width="3.485" stroke="#4550e5" stroke-linecap="round" stroke-linejoin="round" fill="none"/><path d="M175.586,169.909a40.046,40.046,0,0,1,39.662,40.021v19.627h-79.32V209.93a40.046,40.046,0,0,1,39.658-40.021Z" transform="translate(-52.764 -83.395)" fill="#fff"/><path d="M175.586,169.909a40.046,40.046,0,0,1,39.662,40.021v19.627h-79.32V209.93a40.046,40.046,0,0,1,39.658-40.021Z" transform="translate(-52.764 -83.395)" fill="none" stroke="#4550e5" stroke-linecap="round" stroke-linejoin="round" stroke-width="3.485"/><path d="M178.685,153.082c-15.356-2.559-34.135-3.07-30.707,14.074,1.561,7.877,5.323,7.958,30.707,21.75,25.384-13.792,29.116-13.869,30.707-21.75C212.819,150.011,194.037,150.524,178.685,153.082Z" transform="translate(-55.859 -78.568)" fill="#fff" stroke="#4550e5" stroke-linecap="round" stroke-linejoin="round" stroke-width="3.485"/><path d="M179.045,153.08c-12.078-2.021-26.305-2.764-30.113,5.374,3.045,7.267,5.808,8.8,30.113,17.656,24.309-8.854,27.073-10.389,30.113-17.656C205.325,150.368,191.124,151.059,179.045,153.08Z" transform="translate(-56.221 -78.566)" fill="#fff" stroke="#4550e5" stroke-linecap="round" stroke-linejoin="round" stroke-width="3.485"/><path d="M173.151,186.012a72.415,72.415,0,0,1,4.632,26.177" transform="translate(-62.659 -87.675)" fill="none" stroke="#4550e5" stroke-linecap="round" stroke-linejoin="round" stroke-width="3.485"/><path d="M195.663,160.534v10.594a11.975,11.975,0,0,1-1.459,5.783l-7.5,14.33-7.523-14.33a12.257,12.257,0,0,1-1.433-5.783V160.534Z" transform="translate(-63.882 -80.902)" fill="#fff"/><path d="M195.663,160.534v10.594a11.975,11.975,0,0,1-1.459,5.783l-7.5,14.33-7.523-14.33a12.257,12.257,0,0,1-1.433-5.783V160.534Z" transform="translate(-63.882 -80.902)" fill="none" stroke="#4550e5" stroke-linecap="round" stroke-linejoin="round" stroke-width="3.485"/><path d="M205.071,186.012a72.416,72.416,0,0,0-4.632,26.177" transform="translate(-69.912 -87.675)" fill="none" stroke="#4550e5" stroke-linecap="round" stroke-linejoin="round" stroke-width="3.485"/><path d="M179.494,270.321h8.956a6.4,6.4,0,0,1,6.4,6.4h0a6.4,6.4,0,0,1-6.4,6.4h-8.956Z" transform="translate(-64.345 -110.086)" fill="#fff" stroke="#4550e5" stroke-linecap="round" stroke-linejoin="round" stroke-width="3.485"/><line y1="22.058" transform="translate(98.516 122.467)" stroke-width="3.485" stroke="#4550e5" stroke-linecap="round" stroke-linejoin="round" fill="none"/><path d="M135.928,232.618v11.747c0,14.944,10.543,29.351,31.986,29.351v-12.8a2.559,2.559,0,0,0-2.559-2.559,13.661,13.661,0,0,1-14.075-13.994V232.157" transform="translate(-52.764 -99.941)" fill="#fff" stroke="#4550e5" stroke-linecap="round" stroke-linejoin="round" stroke-width="3.485"/><path d="M204.421,112.357v-6.4a25.588,25.588,0,0,0-51.177,0v6.4a5.118,5.118,0,0,0,0,10.236h.307a25.588,25.588,0,0,0,50.564,0h.307a5.118,5.118,0,1,0,0-10.236Z" transform="translate(-56.007 -59.594)" fill="#fff" stroke="#4550e5" stroke-linecap="round" stroke-linejoin="round" stroke-width="3.485"/><circle cx="3.199" cy="3.199" r="3.199" transform="translate(104.913 60.44)" fill="#d6daff"/><circle cx="3.199" cy="3.199" r="3.199" transform="translate(134.341 60.44)" fill="#d6daff"/><path d="M194.847,147.6a11.054,11.054,0,0,1-15.356,0" transform="translate(-64.345 -77.466)" fill="none" stroke="#4550e5" stroke-linecap="round" stroke-linejoin="round" stroke-width="3.485"/><path d="M178.457,126.5a4.171,4.171,0,0,0-7.678,0" transform="translate(-62.029 -71.182)" fill="none" stroke="#4550e5" stroke-linecap="round" stroke-linejoin="round" stroke-width="3.485"/><path d="M206.34,126.5a4.171,4.171,0,0,0-7.678,0" transform="translate(-69.44 -71.182)" fill="none" stroke="#4550e5" stroke-linecap="round" stroke-linejoin="round" stroke-width="3.485"/><path d="M176.29,73.192c-18.475,0-26.177,13.485-26.177,26.152v10.7c7.678,0,7.678-9.237,7.678-9.237s18.475,3.07,30.707-6.167c0,0,7.678,15.356,20.036,15.356V99.241c0-15.481-3.276-21.546-18.475-21.546C190.159,77.7,188.6,73.192,176.29,73.192Z" transform="translate(-56.535 -57.686)" fill="#fff"/><path d="M176.29,73.192c-18.475,0-26.177,13.485-26.177,26.152v10.7c7.678,0,7.678-9.237,7.678-9.237s18.475,3.07,30.707-6.167c0,0,7.678,15.356,20.036,15.356V99.241c0-15.481-3.276-21.546-18.475-21.546C190.159,77.7,188.6,73.192,176.29,73.192Z" transform="translate(-56.535 -57.686)" fill="none" stroke="#4550e5" stroke-linecap="round" stroke-linejoin="round" stroke-width="3.485"/><path d="M173.091,131.078h-8.342a6.269,6.269,0,0,1-6.167-6.295v-5.117a2.559,2.559,0,0,1,2.559-2.559H176.7a3.07,3.07,0,0,1,3.045,3.429l-.537,4.939a6.3,6.3,0,0,1-6.112,5.6Z" transform="translate(-58.786 -69.358)" fill="none" stroke="#4550e5" stroke-linecap="round" stroke-linejoin="round" stroke-width="3.485"/><path d="M199.132,131.078h8.342a6.269,6.269,0,0,0,6.167-6.295v-5.117a2.559,2.559,0,0,0-2.559-2.559H195.527a3.1,3.1,0,0,0-3.07,3.429l.563,4.939a6.269,6.269,0,0,0,6.111,5.6Z" transform="translate(-67.785 -69.358)" fill="none" stroke="#4550e5" stroke-linecap="round" stroke-linejoin="round" stroke-width="3.485"/><line x2="4.068" transform="translate(120.779 52.763)" stroke-width="3.485" stroke="#4550e5" stroke-linecap="round" stroke-linejoin="round" fill="none"/><path d="M177.443,55.974c-17.068,0-34.545,12.078-34.545,39.662h5.117c0-24.514,12.794-33.265,29.427-34.545,16.632,1.279,29.427,10.082,29.427,34.545h5.117C211.987,68.052,194.511,56,177.443,55.974Z" transform="translate(-54.618 -53.108)" fill="#fff" stroke="#4550e5" stroke-linecap="round" stroke-linejoin="round" stroke-width="3.485"/><path d="M141.155,110h7.678a2.559,2.559,0,0,1,2.559,2.559v21.75a2.559,2.559,0,0,1-2.559,2.559h-7.678Z" transform="translate(-54.154 -67.469)" fill="#d6daff" stroke="#4550e5" stroke-linecap="round" stroke-linejoin="round" stroke-width="3.485"/><path d="M137.45,136.865c-5.655,0-10.236-6.014-10.236-13.434S131.795,110,137.45,110Z" transform="translate(-50.449 -67.469)" fill="#fff"/><path d="M137.45,136.865c-5.655,0-10.236-6.014-10.236-13.434S131.795,110,137.45,110Z" transform="translate(-50.449 -67.469)" fill="none" stroke="#4550e5" stroke-linejoin="round" stroke-width="3.485"/><path d="M0,0H7.678a2.559,2.559,0,0,1,2.559,2.559v21.75a2.559,2.559,0,0,1-2.559,2.559H0Z" transform="translate(158.65 69.397) rotate(180)" fill="#d6daff" stroke="#4550e5" stroke-linecap="round" stroke-linejoin="round" stroke-width="3.485"/><path d="M238.744,136.865c5.655,0,10.236-6.014,10.236-13.434S244.4,110,238.744,110Z" transform="translate(-80.095 -67.469)" fill="#fff"/><path d="M238.744,136.865c5.655,0,10.236-6.014,10.236-13.434S244.4,110,238.744,110Z" transform="translate(-80.095 -67.469)" fill="none" stroke="#4550e5" stroke-linejoin="round" stroke-width="3.485"/><path d="M200.483,57.035a34.34,34.34,0,0,0-35.568,0,4.674,4.674,0,1,0,4.862,7.984,24.949,24.949,0,0,1,25.845,0,4.632,4.632,0,0,0,4.862-7.855Z" transform="translate(-59.874 -52.071)" fill="#d6daff"/><path d="M200.483,57.035a34.34,34.34,0,0,0-35.568,0,4.674,4.674,0,1,0,4.862,7.984,24.949,24.949,0,0,1,25.845,0,4.632,4.632,0,0,0,4.862-7.855Z" transform="translate(-59.874 -52.071)" fill="none" stroke="#4550e5" stroke-linecap="round" stroke-linejoin="round" stroke-width="3.485"/><line y1="1.561" transform="translate(148.005 122.467)" stroke-width="3.485" stroke="#4550e5" stroke-linecap="round" stroke-linejoin="round" fill="none"/><line y1="23.593" transform="translate(148.005 122.467)" stroke-width="3.485" stroke="#4550e5" stroke-linecap="round" stroke-linejoin="round" fill="none"/><ellipse cx="38.383" cy="3.838" rx="38.383" ry="3.838" transform="translate(0.768 164.074)" fill="#f0f2ff"/><ellipse cx="49.898" cy="3.838" rx="49.898" ry="3.838" transform="translate(100.563 171.75)" fill="#f0f2ff"/><path d="M114.791,170.809l-44.243,9.084a2.559,2.559,0,0,1-3.019-1.994l-2.687-13.1a2.559,2.559,0,0,1,.358-1.919,2.712,2.712,0,0,1,1.612-1.1l44.273-9.084Z" transform="translate(-33.854 -78.817)" fill="#fff" stroke="#4550e5" stroke-linecap="round" stroke-linejoin="round" stroke-width="3.485"/><path d="M87.935,203.606l1.97-1.919v-8.874" transform="translate(-40.007 -89.481)" fill="none" stroke="#4550e5" stroke-linecap="round" stroke-linejoin="round" stroke-width="3.485"/><path d="M80.686,217.761l-4.913-3.71L80.4,207.91a3.078,3.078,0,0,1,4.913,3.71Z" transform="translate(-36.774 -93.17)" fill="#d6daff" stroke="#4550e5" stroke-linecap="round" stroke-linejoin="round" stroke-width="3.485"/><line x1="34.34" y1="14.304" transform="translate(1.74 102.968)" stroke-width="3.485" stroke="#4550e5" stroke-linecap="round" stroke-linejoin="round" fill="none"/><line x1="31.116" y1="12.948" transform="translate(0.179 113.741)" stroke-width="3.485" stroke="#4550e5" stroke-linecap="round" stroke-linejoin="round" fill="none"/><path d="M114.791,170.809l-44.243,9.084a2.559,2.559,0,0,1-3.019-1.994l-2.687-13.1a2.559,2.559,0,0,1,.358-1.919,2.712,2.712,0,0,1,1.612-1.1l44.273-9.084Z" transform="translate(-33.854 -78.817)" fill="none" stroke="#4550e5" stroke-linecap="round" stroke-linejoin="round" stroke-width="3.485"/><path d="M131.59,170.529l3.531-.742a2.559,2.559,0,0,0,1.97-3.019l-2.56-13.073a2.559,2.559,0,0,0-3.045-1.994l-3.506.717Z" transform="translate(-50.652 -78.538)" fill="#d6daff" stroke="#4550e5" stroke-linecap="round" stroke-linejoin="round" stroke-width="3.485"/><line x2="1.228" y2="6.039" transform="translate(73.669 87.18)" stroke-width="3.485" stroke="#4550e5" stroke-linecap="round" stroke-linejoin="round" fill="none"/><line x2="1.228" y2="6.039" transform="translate(71.187 75.128)" stroke-width="3.485" stroke="#4550e5" stroke-linecap="round" stroke-linejoin="round" fill="none"/><line x2="1.228" y2="6.014" transform="translate(67.631 88.434)" stroke-width="3.485" stroke="#4550e5" stroke-linecap="round" stroke-linejoin="round" fill="none"/><line x2="1.253" y2="6.039" transform="translate(65.149 76.357)" stroke-width="3.485" stroke="#4550e5" stroke-linecap="round" stroke-linejoin="round" fill="none"/><path d="M88.991,181.138l-5.552-27.149,8.265-3.71a2.559,2.559,0,0,1,3.531,2.892l-2.991,13.152,7.932,10.875a2.559,2.559,0,0,1-2.094,4.068Z" transform="translate(-38.812 -78.119)" fill="none" stroke="#4550e5" stroke-linecap="round" stroke-linejoin="round" stroke-width="3.485"/><path d="M78.725,155.073l-10.233-.921a2.559,2.559,0,0,0-2.227,4.145l9.107,11.592-4.043,13.2a2.559,2.559,0,0,0,3.429,3.1l9.417-3.967" transform="translate(-34.098 -79.203)" fill="none" stroke="#4550e5" stroke-linecap="round" stroke-linejoin="round" stroke-width="3.485"/><path d="M62.717,169.875l-.768.154a6.936,6.936,0,0,0,2.792,13.588l.768-.154Z" transform="translate(-31.626 -83.386)" fill="#d6daff" stroke="#4550e5" stroke-linecap="round" stroke-linejoin="round" stroke-width="3.485"/><line y1="2.482" x2="12.052" transform="translate(41.377 88.203)" stroke-width="3.485" stroke="#4550e5" stroke-linecap="round" stroke-linejoin="round" fill="none"/><circle cx="7.702" cy="7.702" r="7.702" transform="translate(30.988 116.812)" fill="#d6daff" stroke="#4550e5" stroke-linecap="round" stroke-linejoin="round" stroke-width="3.485"/><path d="M77.293,220.554a3.1,3.1,0,1,1-3.07-3.07,3.1,3.1,0,0,1,3.07,3.07Z" transform="translate(-35.532 -96.041)" fill="#fff" stroke="#4550e5" stroke-linecap="round" stroke-linejoin="round" stroke-width="3.485"/><rect width="61.412" height="6.398" rx="3.199" transform="translate(7.677 158.956)" stroke-width="3.485" stroke="#4550e5" stroke-linecap="round" stroke-linejoin="round" fill="#fff"/><rect width="61.412" height="6.398" rx="3.199" transform="translate(10.236 152.559)" stroke-width="3.485" stroke="#4550e5" stroke-linecap="round" stroke-linejoin="round" fill="#fff"/><rect width="61.412" height="6.398" rx="3.199" transform="translate(7.677 146.162)" stroke-width="3.485" stroke="#4550e5" stroke-linecap="round" stroke-linejoin="round" fill="#fff"/><rect width="61.412" height="6.398" rx="3.199" transform="translate(10.236 139.765)" stroke-width="3.485" stroke="#4550e5" stroke-linecap="round" stroke-linejoin="round" fill="#fff"/><path d="M206.538,261.895h-6.167l14.714-45.215A3.071,3.071,0,0,1,218,214.556h3.915" transform="translate(-69.895 -95.263)" fill="#fff" stroke="#4550e5" stroke-linejoin="round" stroke-width="3.485"/><path d="M268.8,261.895H208.774l15.356-47.339h55.86a3.045,3.045,0,0,1,2.559,1.279,2.991,2.991,0,0,1,.435,2.738Z" transform="translate(-72.128 -95.262)" fill="#fff" stroke="#4550e5" stroke-linejoin="round" stroke-width="3.485"/><path d="M267.968,279.035H205.634v7.678h56.3C265.179,286.737,267.968,284.536,267.968,279.035Z" transform="translate(-71.293 -112.402)" fill="#fff" stroke="#4550e5" stroke-linejoin="round" stroke-width="3.485"/><path d="M194.512,279.035h-30.7c0,5.348,2.559,7.678,6.065,7.678h24.637Z" transform="translate(-60.176 -112.402)" fill="#fff" stroke="#4550e5" stroke-linejoin="round" stroke-width="3.485"/><path d="M263.079,241.887A3.429,3.429,0,0,1,264.717,239a3.557,3.557,0,0,0-2.763-1.51c-1.177,0-2.3.717-2.892.717s-1.536-.691-2.559-.665a3.71,3.71,0,0,0-3.122,1.895,7.958,7.958,0,0,0,.947,7.678c.64.921,1.407,1.944,2.405,1.919s1.305-.64,2.559-.64,1.459.64,2.559.614,1.689-.946,2.3-1.868a7.165,7.165,0,0,0,1.049-2.15A3.352,3.352,0,0,1,263.079,241.887Z" transform="translate(-83.831 -101.358)" fill="#d6daff" stroke="#4550e5" stroke-linejoin="round" stroke-width="3.485"/><line y1="1.382" x2="1.382" transform="translate(176.664 130.834)" stroke-width="3.485" stroke="#4550e5" stroke-linecap="round" stroke-linejoin="round" fill="none"/><path d="M268.8,261.895H208.774l15.356-47.339h55.86a3.045,3.045,0,0,1,2.559,1.279,2.991,2.991,0,0,1,.435,2.738Z" transform="translate(-72.128 -95.262)" fill="none" stroke="#4550e5" stroke-linejoin="round" stroke-width="3.485"/></g></g></svg>