<svg xmlns="http://www.w3.org/2000/svg" xmlns:xlink="http://www.w3.org/1999/xlink" width="250" height="230" viewBox="0 0 250 230"><defs><clipPath id="a"><rect width="250" height="230" transform="translate(190 678)" fill="#fff" stroke="#707070" stroke-width="1"/></clipPath><clipPath id="b"><rect width="230" height="230" transform="translate(2651.654 41.106)" fill="#fff" stroke="#707070" stroke-width="0.97"/></clipPath></defs><g transform="translate(-190 -678)" clip-path="url(#a)"><g transform="translate(-2451.654 634.894)" clip-path="url(#b)"><g transform="translate(2659.654 72.895)"><path d="M245.27,159.015A104.862,104.862,0,1,0,44.907,202.271H235.938a104.545,104.545,0,0,0,9.332-43.256Z" transform="translate(-25.062 -54.103)" fill="#f0f2ff"/><line x2="204.48" transform="translate(11.797 148.064)" stroke-width="3.386" stroke="#4550e5" stroke-linecap="round" stroke-linejoin="round" fill="none"/><line x2="6.554" transform="translate(0 148.064)" stroke-width="3.386" stroke="#4550e5" stroke-linecap="round" stroke-linejoin="round" fill="none"/><line x2="6.554" transform="translate(221.519 148.064)" stroke-width="3.386" stroke="#4550e5" stroke-linecap="round" stroke-linejoin="round" fill="none"/><path d="M204.835,167.452A40.633,40.633,0,0,0,164.2,208.19v19.662h81.268V208.19a40.633,40.633,0,0,0-40.633-40.738Z" transform="translate(-54.097 -79.684)" fill="#fff" stroke="#4550e5" stroke-linecap="round" stroke-linejoin="round" stroke-width="3.386"/><path d="M191.728,170.228A40.662,40.662,0,0,0,164.2,208.817v19.662h27.526Z" transform="translate(-54.097 -80.31)" fill="#d6daff"/><line y2="18.875" transform="translate(124.523 129.188)" stroke-width="3.386" stroke="#4550e5" stroke-linecap="round" stroke-linejoin="round" fill="none"/><path d="M233.606,170.228a40.662,40.662,0,0,1,27.526,38.589v19.662H233.606Z" transform="translate(-69.761 -80.31)" fill="#d6daff"/><line y2="18.875" transform="translate(176.953 129.188)" stroke-width="3.386" stroke="#4550e5" stroke-linecap="round" stroke-linejoin="round" fill="none"/><path d="M191.728,170.228A40.662,40.662,0,0,0,164.2,208.817v19.662h27.526Z" transform="translate(-54.097 -80.31)" fill="none" stroke="#4550e5" stroke-linecap="round" stroke-linejoin="round" stroke-width="3.386"/><path d="M233.606,170.228a40.662,40.662,0,0,1,27.526,38.589v19.662H233.606Z" transform="translate(-69.761 -80.31)" fill="none" stroke="#4550e5" stroke-linecap="round" stroke-linejoin="round" stroke-width="3.386"/><path d="M212.143,178.267a17.04,17.04,0,0,0,15.546-10.04,40.027,40.027,0,0,0-6.37-2.019V157.3H202.972v8.913a40.031,40.031,0,0,0-6.37,2.019,17.04,17.04,0,0,0,15.542,10.04Z" transform="translate(-61.409 -77.392)" fill="#fff"/><path d="M212.143,178.267a17.04,17.04,0,0,0,15.546-10.04,40.027,40.027,0,0,0-6.37-2.019V157.3H202.972v8.913a40.031,40.031,0,0,0-6.37,2.019,17.04,17.04,0,0,0,15.542,10.04Z" transform="translate(-61.409 -77.392)" fill="none" stroke="#4550e5" stroke-linecap="round" stroke-linejoin="round" stroke-width="3.386"/><rect width="44.566" height="27.526" rx="3.386" transform="translate(128.455 113.983)" stroke-width="3.386" stroke="#4550e5" stroke-linecap="round" stroke-linejoin="round" fill="#fff"/><rect width="44.566" height="17.04" transform="translate(128.455 119.226)" stroke-width="3.386" stroke="#4550e5" stroke-linecap="round" stroke-linejoin="round" fill="#d6daff"/><path d="M222.756,196.267a3.172,3.172,0,0,0-2.8-1.73H206.528a3.172,3.172,0,0,0-2.8,1.73,14.025,14.025,0,0,0-2.281,7.55v23.594h23.594V203.817A14.025,14.025,0,0,0,222.756,196.267Z" transform="translate(-62.502 -85.796)" fill="#fff" stroke="#4550e5" stroke-linecap="round" stroke-linejoin="round" stroke-width="3.386"/><circle cx="11.797" cy="11.797" r="11.797" transform="translate(138.941 113.983)" fill="#fff" stroke="#4550e5" stroke-linecap="round" stroke-linejoin="round" stroke-width="3.386"/><circle cx="6.554" cy="6.554" r="6.554" transform="translate(144.184 119.226)" fill="#d6daff"/><path d="M214.772,208.079a6.554,6.554,0,0,0-4.666,11.142l9.254-9.254a6.449,6.449,0,0,0-4.587-1.888Z" transform="translate(-64.034 -88.853)" fill="#fff"/><circle cx="6.554" cy="6.554" r="6.554" transform="translate(144.184 119.226)" fill="none" stroke="#4550e5" stroke-linecap="round" stroke-linejoin="round" stroke-width="3.386"/><path d="M237.7,180.068v12.583H231.15V180.068a13.527,13.527,0,0,0-2.62-8.756V162.95a20.788,20.788,0,0,1,9.176,17.119Z" transform="translate(-68.615 -78.668)" fill="#d6daff" stroke="#4550e5" stroke-linecap="round" stroke-linejoin="round" stroke-width="3.386"/><path d="M192.979,180.068v12.583h6.554V180.068a13.527,13.527,0,0,1,2.62-8.756V162.95a20.788,20.788,0,0,0-9.174,17.118Z" transform="translate(-60.592 -78.668)" fill="#d6daff" stroke="#4550e5" stroke-linecap="round" stroke-linejoin="round" stroke-width="3.386"/><path d="M233.725,112.33v-6.55a26.215,26.215,0,1,0-52.43,0v6.554a5.243,5.243,0,1,0,0,10.486h.314a26.215,26.215,0,0,0,51.8,0h.314a5.243,5.243,0,0,0,0-10.486Z" transform="translate(-56.771 -59.849)" fill="#fff" stroke="#4550e5" stroke-linecap="round" stroke-linejoin="round" stroke-width="3.386"/><circle cx="3.277" cy="3.277" r="3.277" transform="translate(132.388 60.242)" fill="#d6daff"/><circle cx="3.277" cy="3.277" r="3.277" transform="translate(162.535 60.242)" fill="#d6daff"/><path d="M222.251,144.734a11.325,11.325,0,0,1-15.729,0" transform="translate(-63.648 -74.557)" fill="none" stroke="#4550e5" stroke-linecap="round" stroke-linejoin="round" stroke-width="3.386"/><path d="M205.922,124.511a4.27,4.27,0,0,0-7.861,0" transform="translate(-61.738 -69.406)" fill="none" stroke="#4550e5" stroke-linecap="round" stroke-linejoin="round" stroke-width="3.386"/><path d="M233.008,124.511a4.27,4.27,0,0,0-7.861,0" transform="translate(-67.85 -69.406)" fill="none" stroke="#4550e5" stroke-linecap="round" stroke-linejoin="round" stroke-width="3.386"/><path d="M239.833,96.7a22.7,22.7,0,0,0-4.666-3.277c4.876.21,8.734-1.128,9.045-3.33s-4.194-5.374-10.224-6.239a25.01,25.01,0,0,0-7.861.236s3.015-.5,4.614-.707c6.029-.76,10.643-3.487,10.329-6.056s-5.479-4.063-11.509-3.3a20.527,20.527,0,0,0-7.367,2.254c.472-.367.943-.734,1.39-1.154,4.509-4.063,6.763-8.913,5.034-10.853s-6.816-.21-11.354,3.854a18.771,18.771,0,0,0-5.241,7c-.707-.183-1.39-.367-2.1-.5a23.594,23.594,0,0,0,2.62-4.011c2.8-5.4,3.2-10.748.891-11.954s-5.872,1.888-8.651,6.948c-2.778-4.928-6.632-7.861-8.831-6.816s-1.914,6.554.891,11.954a23.593,23.593,0,0,0,2.62,4.011,8.705,8.705,0,0,0-2.1.5,18.77,18.77,0,0,0-5.24-7c-4.509-4.063-9.595-5.794-11.354-3.854s.524,6.793,5.034,10.853c.445.419.917.786,1.39,1.154a20.553,20.553,0,0,0-7.341-2.254c-6.029-.76-11.194.707-11.535,3.3s4.3,5.241,10.329,6.056c1.835.236,4.614.707,4.614.707a35.023,35.023,0,0,0-7.861-.236c-6,.865-10.486,3.644-10.224,6.239s4.173,3.539,9.045,3.33a22.7,22.7,0,0,0-4.666,3.277c-4.509,4.09-6.737,8.966-4.981,10.905,1.39,1.521,4.876.707,8.493-1.7a22.7,22.7,0,0,0-1.337,2.385c-2.62,5.479-2.883,10.827-.524,11.954,1.442.707,3.539-.367,5.532-2.62a5.241,5.241,0,0,1,1.825-10.2c2.62,0,3.882,1.783,3.882,4.456a26.844,26.844,0,0,0,.576-11.142c2.62.917,7.288-3.015,7.288-3.015V91.564a72.882,72.882,0,0,0,14.471,2.883,72.433,72.433,0,0,0,14.471-2.857v6.292s4.535,3.932,7.288,3.015a26.845,26.845,0,0,0,.576,11.142c0-2.62,1.262-4.456,3.882-4.456a5.241,5.241,0,0,1,1.65,10.224c2.019,2.2,4.09,3.277,5.532,2.62,2.359-1.128,2.123-6.475-.524-11.954a22.709,22.709,0,0,0-1.337-2.385c3.644,2.412,7.1,3.225,8.493,1.7C246.57,105.668,244.342,100.792,239.833,96.7Z" transform="translate(-54.044 -55.074)" fill="#fff"/><path d="M239.833,96.7a22.7,22.7,0,0,0-4.666-3.277c4.876.21,8.734-1.128,9.045-3.33s-4.194-5.374-10.224-6.239a25.01,25.01,0,0,0-7.861.236s3.015-.5,4.614-.707c6.029-.76,10.643-3.487,10.329-6.056s-5.479-4.063-11.509-3.3a20.527,20.527,0,0,0-7.367,2.254c.472-.367.943-.734,1.39-1.154,4.509-4.063,6.763-8.913,5.034-10.853s-6.816-.21-11.354,3.854a18.771,18.771,0,0,0-5.241,7c-.707-.183-1.39-.367-2.1-.5a23.594,23.594,0,0,0,2.62-4.011c2.8-5.4,3.2-10.748.891-11.954s-5.872,1.888-8.651,6.948c-2.778-4.928-6.632-7.861-8.831-6.816s-1.914,6.554.891,11.954a23.593,23.593,0,0,0,2.62,4.011,8.705,8.705,0,0,0-2.1.5,18.77,18.77,0,0,0-5.24-7c-4.509-4.063-9.595-5.794-11.354-3.854s.524,6.793,5.034,10.853c.445.419.917.786,1.39,1.154a20.553,20.553,0,0,0-7.341-2.254c-6.029-.76-11.194.707-11.535,3.3s4.3,5.241,10.329,6.056c1.835.236,4.614.707,4.614.707a35.023,35.023,0,0,0-7.861-.236c-6,.865-10.486,3.644-10.224,6.239s4.173,3.539,9.045,3.33a22.7,22.7,0,0,0-4.666,3.277c-4.509,4.09-6.737,8.966-4.981,10.905,1.39,1.521,4.876.707,8.493-1.7a22.7,22.7,0,0,0-1.337,2.385c-2.62,5.479-2.883,10.827-.524,11.954,1.442.707,3.539-.367,5.532-2.62a5.241,5.241,0,0,1,1.825-10.2c2.62,0,3.882,1.783,3.882,4.456a26.844,26.844,0,0,0,.576-11.142c2.62.917,7.288-3.015,7.288-3.015V91.564a72.882,72.882,0,0,0,14.471,2.883,72.433,72.433,0,0,0,14.471-2.857v6.292s4.535,3.932,7.288,3.015a26.845,26.845,0,0,0,.576,11.142c0-2.62,1.262-4.456,3.882-4.456a5.241,5.241,0,0,1,1.65,10.224c2.019,2.2,4.09,3.277,5.532,2.62,2.359-1.128,2.123-6.475-.524-11.954a22.709,22.709,0,0,0-1.337-2.385c3.644,2.412,7.1,3.225,8.493,1.7C246.57,105.668,244.342,100.792,239.833,96.7Z" transform="translate(-54.044 -55.074)" fill="none" stroke="#4550e5" stroke-linecap="round" stroke-linejoin="round" stroke-width="3.386"/><path d="M79.562,278.271c0,2.176,18.193,3.932,40.633,3.932s40.633-1.757,40.633-3.932-18.193-4.037-40.633-4.037S79.562,276.1,79.562,278.271Z" transform="translate(-34.996 -103.782)" fill="#f0f2ff"/><rect width="23.594" height="20.973" transform="translate(74.714 83.835)" fill="#d6daff"/><rect width="23.594" height="20.973" transform="translate(74.714 83.835)" stroke-width="3.386" stroke="#4550e5" stroke-linecap="round" stroke-linejoin="round" fill="none"/><rect width="36.701" height="23.594" rx="3.386" transform="translate(68.16 69.417)" stroke-width="3.386" stroke="#4550e5" stroke-linecap="round" stroke-linejoin="round" fill="#fff"/><rect width="31.459" height="20.973" rx="3.386" transform="translate(70.782 104.808)" stroke-width="3.386" stroke="#4550e5" stroke-linecap="round" stroke-linejoin="round" fill="#fff"/><rect width="26.215" height="13.108" rx="1.692" transform="translate(73.403 74.661)" fill="#d6daff"/><path d="M124.668,163.662h-6.554a1.311,1.311,0,0,1-1.311-1.311V151.967a1.311,1.311,0,0,1,1.311-1.311h19.662Z" transform="translate(-43.4 -75.894)" fill="#fff"/><rect width="26.215" height="13.108" rx="1.692" transform="translate(73.403 74.661)" stroke-width="3.386" stroke="#4550e5" stroke-linecap="round" stroke-linejoin="round" fill="none"/><path d="M136.682,203.136H126.2a2.62,2.62,0,0,0-2.62,2.62v7.861h15.729v-7.861a2.62,2.62,0,0,0-2.623-2.62Z" transform="translate(-44.929 -87.737)" fill="#d6daff" stroke="#4550e5" stroke-linecap="round" stroke-linejoin="round" stroke-width="3.386"/><rect width="68.16" height="39.323" rx="3.386" transform="translate(49.809 133.645)" fill="#fff"/><rect width="68.16" height="20.973" transform="translate(49.809 144.131)" fill="#d6daff"/><rect width="68.16" height="20.973" transform="translate(49.809 144.131)" stroke-width="3.386" stroke="#4550e5" stroke-linecap="round" stroke-linejoin="round" fill="none"/><path d="M162.673,220.063h-2.62a2.62,2.62,0,0,0-2.62,2.62v2.62h7.861v-2.62a2.62,2.62,0,0,0-2.62-2.62Z" transform="translate(-52.569 -91.557)" fill="#d6daff" stroke="#4550e5" stroke-linecap="round" stroke-linejoin="round" stroke-width="3.386"/><path d="M100.968,220.063H95.728a2.62,2.62,0,0,0-2.62,2.62v2.62h10.486v-2.62a2.62,2.62,0,0,0-2.625-2.62Z" transform="translate(-38.052 -91.557)" fill="#d6daff" stroke="#4550e5" stroke-linecap="round" stroke-linejoin="round" stroke-width="3.386"/><rect width="68.16" height="39.323" rx="3.386" transform="translate(49.809 133.645)" stroke-width="3.386" stroke="#4550e5" stroke-linecap="round" stroke-linejoin="round" fill="none"/><path d="M157.977,255.013a3.932,3.932,0,0,0,0-7.861h-3.932v7.861Z" transform="translate(-51.805 -97.669)" fill="#fff" stroke="#4550e5" stroke-linecap="round" stroke-linejoin="round" stroke-width="3.386"/><path d="M137.992,216.678H120.271a2.62,2.62,0,0,0-2.359,1.442l-2.62,5.241a18.35,18.35,0,0,0-1.941,8.205v32.3h31.459V231.385a18.35,18.35,0,0,0-1.941-8.205l-2.62-5.24a2.62,2.62,0,0,0-2.255-1.261Z" transform="translate(-42.621 -90.793)" fill="#fff"/><path d="M137.992,216.678H120.271a2.62,2.62,0,0,0-2.359,1.442l-2.62,5.241a18.35,18.35,0,0,0-1.941,8.205v32.3h31.459V231.385a18.35,18.35,0,0,0-1.941-8.205l-2.62-5.24a2.62,2.62,0,0,0-2.255-1.261Z" transform="translate(-42.621 -90.793)" fill="none" stroke="#4550e5" stroke-linecap="round" stroke-linejoin="round" stroke-width="3.386"/><circle cx="15.729" cy="15.729" r="15.729" transform="translate(70.782 138.888)" fill="#fff"/><circle cx="10.486" cy="10.486" r="10.486" transform="translate(76.024 144.131)" fill="#d6daff"/><path d="M123.254,258.143a10.492,10.492,0,1,1,14.837-14.837Z" transform="translate(-44.163 -96.109)" fill="#fff"/><circle cx="15.729" cy="15.729" r="15.729" transform="translate(70.782 138.888)" fill="none" stroke="#4550e5" stroke-linecap="round" stroke-linejoin="round" stroke-width="3.386"/><circle cx="10.486" cy="10.486" r="10.486" transform="translate(76.024 144.131)" fill="none" stroke="#4550e5" stroke-linecap="round" stroke-linejoin="round" stroke-width="3.386"/><line x2="15.729" transform="translate(78.646 133.645)" stroke-width="3.386" stroke="#4550e5" stroke-linecap="round" stroke-linejoin="round" fill="none"/><line y2="20.973" transform="translate(60.295 144.131)" stroke-width="3.386" stroke="#4550e5" stroke-linecap="round" stroke-linejoin="round" fill="none"/><line x2="7.865" transform="translate(57.674 138.888)" stroke-width="3.386" stroke="#4550e5" stroke-linecap="round" stroke-linejoin="round" fill="none"/></g></g></g></svg>