<svg xmlns="http://www.w3.org/2000/svg" width="468.808" height="348.382" viewBox="0 0 468.808 348.382"><g transform="translate(1.231)"><path d="M454.3,243.007c0-83.211-53.2-158.076-134.38-189.1-81.2-31.02-174.052-11.954-234.563,48.155s-76.52,149.182-40.44,225H435.234A194.856,194.856,0,0,0,454.3,243.007Z" transform="translate(-4.195 -39.223)" fill="#f0f2ff"/><line x2="417.621" transform="translate(24.362 287.846)" stroke-width="2.462" stroke="#4550e5" stroke-linecap="round" stroke-linejoin="round" fill="none"/><line x2="13.535" transform="translate(0 287.846)" stroke-width="2.462" stroke="#4550e5" stroke-linecap="round" stroke-linejoin="round" fill="none"/><line x2="13.535" transform="translate(452.812 287.846)" stroke-width="2.462" stroke="#4550e5" stroke-linecap="round" stroke-linejoin="round" fill="none"/><rect width="261.489" height="175.774" rx="8.862" transform="translate(90.783 129.192)" fill="#d6daff"/><path d="M216.356,101.644H80.633c-12.379,0-22.414,9.444-22.414,21.093V250.466Z" transform="translate(33.245 27.547)" fill="#fff"/><rect width="261.489" height="175.774" rx="8.862" transform="translate(90.783 129.192)" stroke-width="2.462" stroke="#4550e5" stroke-linecap="round" stroke-linejoin="round" fill="none"/><path d="M297.3,201.108a23.169,23.169,0,0,0,16.024-6.087,20.492,20.492,0,0,0,6.66-15.006v-7.031H58.219v7.031c0,11.649,10.035,21.093,22.414,21.093Z" transform="translate(32.56 103.857)" fill="#fff" stroke="#4550e5" stroke-linecap="round" stroke-linejoin="round" stroke-width="2.462"/><path d="M152.3,214.7H107.478l3.737-28.127H148.57Z" transform="translate(91.501 118.392)" fill="#fff"/><path d="M152.3,214.7H107.478l3.737-28.127H148.57Z" transform="translate(91.501 118.392)" fill="none" stroke="#4550e5" stroke-linecap="round" stroke-linejoin="round" stroke-width="2.462"/><path d="M192.712,214.223H95.588c0-7.766,6.69-14.062,14.942-14.062h67.186c8.261,0,14.967,6.287,15,14.062Z" transform="translate(77.26 132.928)" fill="#fff" stroke="#4550e5" stroke-linecap="round" stroke-linejoin="round" stroke-width="2.462"/><path d="M85.4,89.757H301.951V211.113c0,6.753-5.817,12.228-12.994,12.228H98.39c-7.176,0-12.994-5.475-12.994-12.228Z" transform="translate(64.426 14.83)" fill="#fff" stroke="#4550e5" stroke-linecap="round" stroke-linejoin="round" stroke-width="2.462"/><path d="M98.33,69.371H289.006C296.183,69.371,302,74.846,302,81.6v29.958H85.446V81.6c0-6.713,5.751-12.171,12.885-12.227Z" transform="translate(64.483 -6.974)" fill="#fff" stroke="#4550e5" stroke-linecap="round" stroke-linejoin="round" stroke-width="2.462"/><ellipse cx="7.472" cy="7.031" rx="7.472" ry="7.031" transform="translate(165.846 76.459)" stroke-width="2.462" stroke="#4550e5" stroke-linecap="round" stroke-linejoin="round" fill="#d6daff"/><ellipse cx="7.472" cy="7.031" rx="7.472" ry="7.031" transform="translate(195.426 76.459)" stroke-width="2.462" stroke="#4550e5" stroke-linecap="round" stroke-linejoin="round" fill="#d6daff"/><ellipse cx="7.472" cy="7.031" rx="7.472" ry="7.031" transform="translate(225.005 76.459)" stroke-width="2.462" stroke="#4550e5" stroke-linecap="round" stroke-linejoin="round" fill="#d6daff"/><rect width="29.884" height="28.124" rx="2.462" transform="translate(217.535 146.769)" stroke-width="2.462" stroke="#4550e5" stroke-linecap="round" stroke-linejoin="round" fill="#d6daff"/><rect width="29.884" height="28.124" rx="2.462" transform="translate(265.584 146.769)" stroke-width="2.462" stroke="#4550e5" stroke-linecap="round" stroke-linejoin="round" fill="#d6daff"/><rect width="29.884" height="28.124" rx="2.462" transform="translate(313.633 146.769)" stroke-width="2.462" stroke="#4550e5" stroke-linecap="round" stroke-linejoin="round" fill="#d6daff"/><rect width="29.884" height="28.124" rx="2.462" transform="translate(217.535 188.954)" stroke-width="2.462" stroke="#4550e5" stroke-linecap="round" stroke-linejoin="round" fill="#d6daff"/><rect width="29.884" height="28.124" rx="2.462" transform="translate(265.584 188.954)" stroke-width="2.462" stroke="#4550e5" stroke-linecap="round" stroke-linejoin="round" fill="#d6daff"/><rect width="29.884" height="28.124" rx="2.462" transform="translate(313.633 188.954)" stroke-width="2.462" stroke="#4550e5" stroke-linecap="round" stroke-linejoin="round" fill="#d6daff"/><rect width="29.884" height="14.062" rx="2.462" transform="translate(173.181 118.645)" stroke-width="2.462" stroke="#4550e5" stroke-linecap="round" stroke-linejoin="round" fill="#d6daff"/><rect width="127.009" height="14.062" rx="2.462" stroke-width="2.462" fill="#d6daff" stroke="#4550e5" stroke-linejoin="round" transform="translate(216.879 118.645)"/><line x2="29.884" transform="translate(173.181 146.769)" stroke-width="2.462" stroke="#4550e5" stroke-linecap="round" stroke-linejoin="round" fill="none"/><line x2="29.884" transform="translate(173.181 160.831)" stroke-width="2.462" stroke="#4550e5" stroke-linecap="round" stroke-linejoin="round" fill="none"/><line x2="29.884" transform="translate(173.181 174.893)" stroke-width="2.462" stroke="#4550e5" stroke-linecap="round" stroke-linejoin="round" fill="none"/><line x2="29.884" transform="translate(173.181 188.954)" stroke-width="2.462" stroke="#4550e5" stroke-linecap="round" stroke-linejoin="round" fill="none"/><line x2="29.884" transform="translate(173.181 203.016)" stroke-width="2.462" stroke="#4550e5" stroke-linecap="round" stroke-linejoin="round" fill="none"/><line x2="18.678" transform="translate(173.227 217.079)" stroke-width="2.462" stroke="#4550e5" stroke-linecap="round" stroke-linejoin="round" fill="none"/><path d="M222.323,211.962c-1.083,3.72-3.248,3.821-4.818,0L192.98,156.886c-1.57-3.566,0-5.095,4.06-3.77l58.794,23.026c3.789,1.529,3.627,3.566-.325,4.586l-18.84,5.095a14.225,14.225,0,0,0-9.2,8.611Z" transform="translate(190.859 82.1)" fill="#fff" stroke="#4550e5" stroke-linejoin="round" stroke-width="2.462"/><ellipse cx="3.14" cy="2.955" rx="3.14" ry="2.955" transform="translate(218.242 287.948)" stroke-width="2.462" stroke="#4550e5" stroke-linecap="round" stroke-linejoin="round" fill="none"/></g></svg>