<svg xmlns="http://www.w3.org/2000/svg" width="134.691" height="38.238" viewBox="0 0 134.691 38.238"><g transform="translate(0 0.427)"><g transform="translate(0 -0.427)"><g transform="translate(0 0)"><path d="M308.151,67.522h3.865L318.7,50.576h-3.826l-2.764,8.44-2.912-8.44h-4.27l5.084,12.24ZM288.968,54.6v8.686h-3.9V50.576h2.74l.814,1.11a5.357,5.357,0,0,1,3.5-1.407,4.228,4.228,0,0,1,3.9,1.8,5.842,5.842,0,0,1,4.048-1.8c3.01,0,4.763,1.555,4.763,5.775v7.23h-3.9V56.5c0-1.95-.79-2.517-2.049-2.517a3.581,3.581,0,0,0-2.048.642,12.746,12.746,0,0,1,.074,1.432v7.23h-3.9V56.5c0-1.95-.79-2.517-2.073-2.517a3.33,3.33,0,0,0-1.975.617Zm-13.6,1.086h5.01c-.272-1.653-1.16-2.443-2.492-2.443a2.525,2.525,0,0,0-2.518,2.443Zm2.789,7.847c-3.751,0-6.762-1.851-6.762-6.737,0-4.566,2.913-6.54,6.269-6.54,4.047,0,5.849,2.838,5.849,7.3h-8.169c.272,2.2,1.629,2.838,3.431,2.838a7.276,7.276,0,0,0,4.16-1.139l-.529,3.093a6.413,6.413,0,0,1-4.248,1.181ZM263.64,60.251a3.412,3.412,0,0,0,2.245-.666V54.056a3.816,3.816,0,0,0-2.122-.543c-1.9,0-2.986,1.283-2.986,3.43,0,2.1,1.111,3.308,2.862,3.308Zm3.01,2.1a5.965,5.965,0,0,1-3.825,1.234c-3.48,0-6-2.147-6-6.565,0-4.393,2.888-6.762,6.589-6.762a6.832,6.832,0,0,1,2.467.419V45.281h3.9v18h-2.468Zm-26.343-6.589V46.34h4.047v9.345c0,3.356,1.505,4.047,3.578,4.047,2.246,0,3.406-.987,3.406-4.047V46.34h4.072v9.419c0,5.553-2.418,7.872-7.675,7.872-4.887,0-7.428-2-7.428-7.872Z" transform="translate(-184.011 -34.673)" fill="#383652" fill-rule="evenodd"/><path d="M45.982,21.793a1.245,1.245,0,0,0-.55-.258A26.431,26.431,0,0,1,41.511,24.8a3.63,3.63,0,0,1-1.834.592c-1.138,0-1.632-1.085-1.78-2.809-.2-2.316-.331-5.09-.331-9.377,0-4.4-1-7.386-3.656-7.621-.112-.01-.226-.017-.345-.017-1.632,0-2.423.838-3.462,2.957-.89,1.823-2.275,4.484-4.846,9.51a67.263,67.263,0,0,1-6.825,10.841,7.341,7.341,0,0,1-1.5,1.533,1.56,1.56,0,0,1-.873.29c-.839,0-1.452-.708-1.657-2.358A10.926,10.926,0,0,1,14.327,27c0-3.4,1.286-8.919,3.511-17.05C19.47,4.042,18.778,0,15.217,0h-.042A3.378,3.378,0,0,0,13.056.81a7.779,7.779,0,0,0-1.861,3.027C10.527,5.471,6.467,13.615,0,17.81a3.02,3.02,0,0,0,2.657,3.362c1.666.158,2.848-.544,4.371-1.567-.114.509-.22.984-.316,1.419-.114.514-.21.957-.288,1.314-.116.532-.19.875-.212.97a27.223,27.223,0,0,0-.461,2.767C4.846,34.221,8.621,38.24,13.042,38.24a8.878,8.878,0,0,0,2.2-.273c4.871-1.235,9.56-6.822,15.11-19.684a35.719,35.719,0,0,0-.032,3.918c.366,7.371,3.281,9.583,7.4,9.583a9.645,9.645,0,0,0,7.516-3.646A7.2,7.2,0,0,0,46.768,23.9a2.678,2.678,0,0,0-.786-2.107" transform="translate(0 -0.002)" fill="#d13796" fill-rule="evenodd"/></g></g></g></svg>