<svg xmlns="http://www.w3.org/2000/svg" xmlns:xlink="http://www.w3.org/1999/xlink" width="350" height="350" viewBox="0 0 350 350">
  <defs>
    <clipPath id="clip-path">
      <rect id="Retângulo_451" data-name="Retângulo 451" width="350" height="350" transform="translate(2078 369)" fill="#fff" stroke="#707070" stroke-width="1"/>
    </clipPath>
  </defs>
  <g id="Grupo_de_máscara_7" data-name="Grupo de máscara 7" transform="translate(-2078 -369)" clip-path="url(#clip-path)">
    <g id="stamp-document" transform="translate(2079.989 409.176)">
      <path id="Caminho_1388" data-name="Caminho 1388" d="M354.813,215.257A159.091,159.091,0,1,0,50.79,280.882H340.654a158.5,158.5,0,0,0,14.159-65.625Z" transform="translate(-20.722 -56.177)" fill="#f0f2ff"/>
      <line id="Linha_1" data-name="Linha 1" x2="310.227" transform="translate(17.898 224.705)" fill="none" stroke="#4550e5" stroke-linecap="round" stroke-linejoin="round" stroke-width="3.489"/>
      <line id="Linha_2" data-name="Linha 2" x2="9.943" transform="translate(0 224.705)" fill="none" stroke="#4550e5" stroke-linecap="round" stroke-linejoin="round" stroke-width="3.489"/>
      <line id="Linha_3" data-name="Linha 3" x2="9.943" transform="translate(336.08 224.705)" fill="none" stroke="#4550e5" stroke-linecap="round" stroke-linejoin="round" stroke-width="3.489"/>
      <path id="Caminho_1390" data-name="Caminho 1390" d="M287.176,299.494a5.011,5.011,0,0,1-5.011,5.051H154.3a5.051,5.051,0,0,1-5.051-5.051V123.421a5.051,5.051,0,0,1,5.051-5.051H259.931a5.011,5.011,0,0,1,3.58,1.472L285.7,142.034a5.012,5.012,0,0,1,1.472,3.58Z" transform="translate(-4.948 -47.466)" fill="#fff"/>
      <path id="Caminho_1391" data-name="Caminho 1391" d="M287.176,299.494a5.011,5.011,0,0,1-5.011,5.051H154.3a5.051,5.051,0,0,1-5.051-5.051V123.421a5.051,5.051,0,0,1,5.051-5.051H259.931a5.011,5.011,0,0,1,3.58,1.472L285.7,142.034a5.012,5.012,0,0,1,1.472,3.58Z" transform="translate(-4.948 -47.466)" fill="none" stroke="#4550e5" stroke-linejoin="round" stroke-width="3.489"/>
      <circle id="Elipse_10" data-name="Elipse 10" cx="25.176" cy="25.176" r="25.176" transform="translate(219.744 186.602)" fill="none" stroke="#4550e5" stroke-miterlimit="10" stroke-width="3.489"/>
      <path id="Caminho_1392" data-name="Caminho 1392" d="M226.482,243.017l10.063,10.063,16.347-18.852" transform="translate(5.87 -31.238)" fill="none" stroke="#4550e5" stroke-linecap="round" stroke-linejoin="round" stroke-width="3.489"/>
      <line id="Linha_4" data-name="Linha 4" x2="77.955" transform="translate(177.028 131.279)" fill="none" stroke="#4550e5" stroke-linecap="round" stroke-linejoin="round" stroke-width="3.489"/>
      <line id="Linha_5" data-name="Linha 5" x2="33.449" transform="translate(184.108 116.205)" fill="none" stroke="#4550e5" stroke-linecap="round" stroke-linejoin="round" stroke-width="3.489"/>
      <line id="Linha_6" data-name="Linha 6" x2="77.955" transform="translate(177.028 146.392)" fill="none" stroke="#4550e5" stroke-linecap="round" stroke-linejoin="round" stroke-width="3.489"/>
      <line id="Linha_7" data-name="Linha 7" x2="77.955" transform="translate(177.028 161.466)" fill="none" stroke="#4550e5" stroke-linecap="round" stroke-linejoin="round" stroke-width="3.489"/>
      <path id="Caminho_1393" data-name="Caminho 1393" d="M248.182,138.913a4.574,4.574,0,0,0,4.574,4.574h19.886a4.733,4.733,0,0,0-.994-1.511l-21.994-22.193a6,6,0,0,0-1.472-.994Z" transform="translate(8.909 -47.407)" fill="#d6daff" stroke="#4550e5" stroke-linejoin="round" stroke-width="3.489"/>
      <path id="Caminho_1394" data-name="Caminho 1394" d="M87.566,237.541H211.7a15.909,15.909,0,0,1,15.909,15.909v15.313a3.977,3.977,0,0,1-3.977,3.977H75.634a3.977,3.977,0,0,1-3.977-3.977V253.45A15.909,15.909,0,0,1,87.566,237.541Z" transform="translate(-15.816 -30.774)" fill="#fff"/>
      <path id="Caminho_1395" data-name="Caminho 1395" d="M166.908,180.226H119.777a9.823,9.823,0,0,1-3.222-.6c2.466,5.131,9.188,23.028,9.188,66.023h35.2c0-42.994,6.722-60.892,9.188-66.023a9.822,9.822,0,0,1-3.222.6Z" transform="translate(-9.527 -38.885)" fill="#fff"/>
      <path id="Caminho_1396" data-name="Caminho 1396" d="M215.143,280.557a4.534,4.534,0,0,1-4.335,3.142H86.6a4.534,4.534,0,0,1-4.335-3.142l-3.977-11.932H219.16Z" transform="translate(-14.887 -26.42)" fill="#d6daff"/>
      <path id="Caminho_1397" data-name="Caminho 1397" d="M87.566,237.541H211.7a15.909,15.909,0,0,1,15.909,15.909v15.313a3.977,3.977,0,0,1-3.977,3.977H75.634a3.977,3.977,0,0,1-3.977-3.977V253.45A15.909,15.909,0,0,1,87.566,237.541Z" transform="translate(-15.816 -30.774)" fill="none" stroke="#4550e5" stroke-linejoin="round" stroke-width="3.489"/>
      <path id="Caminho_1398" data-name="Caminho 1398" d="M166.908,180.226H119.777a9.823,9.823,0,0,1-3.222-.6c2.466,5.131,9.188,23.028,9.188,66.023h35.2c0-42.994,6.722-60.892,9.188-66.023a9.822,9.822,0,0,1-3.222.6Z" transform="translate(-9.527 -38.885)" fill="none" stroke="#4550e5" stroke-linejoin="round" stroke-width="3.489"/>
      <path id="Caminho_1399" data-name="Caminho 1399" d="M215.143,280.557a4.534,4.534,0,0,1-4.335,3.142H86.6a4.534,4.534,0,0,1-4.335-3.142l-3.977-11.932H219.16Z" transform="translate(-14.887 -26.42)" fill="none" stroke="#4550e5" stroke-linejoin="round" stroke-width="3.489"/>
      <line id="Linha_8" data-name="Linha 8" x2="35.835" transform="translate(115.898 191.654)" fill="none" stroke="#4550e5" stroke-linejoin="round" stroke-width="3.489"/>
      <rect id="Retângulo_452" data-name="Retângulo 452" width="65.426" height="40.25" rx="6.977" transform="translate(101.102 101.091)" fill="#fff"/>
      <rect id="Retângulo_453" data-name="Retângulo 453" width="65.426" height="40.25" rx="6.977" transform="translate(101.102 101.091)" fill="none" stroke="#4550e5" stroke-linejoin="round" stroke-width="3.489"/>
    </g>
  </g>
</svg>
