<svg xmlns="http://www.w3.org/2000/svg" xmlns:xlink="http://www.w3.org/1999/xlink" width="226" height="226" viewBox="0 0 226 226"><defs><clipPath id="a"><rect width="226" height="226" opacity="0.74" fill="#fff" stroke="#707070" stroke-width="1" transform="translate(1751.474 375.078)"/></clipPath></defs><g transform="translate(-1751.474 -375.078)" clip-path="url(#a)"><g transform="translate(1752.604 392.727)"><path d="M240.15,156.883A102.649,102.649,0,1,0,43.988,199.226h187A101.879,101.879,0,0,0,240.15,156.883Z" transform="translate(-25.871 -52.644)" fill="#f0f2ff"/><line x2="200.165" transform="translate(11.548 146.582)" stroke-width="3.485" stroke="#4550e5" stroke-linecap="round" stroke-linejoin="round" fill="none"/><line x2="6.416" transform="translate(0 146.582)" stroke-width="3.485" stroke="#4550e5" stroke-linecap="round" stroke-linejoin="round" fill="none"/><line x2="6.416" transform="translate(216.846 146.582)" stroke-width="3.485" stroke="#4550e5" stroke-linecap="round" stroke-linejoin="round" fill="none"/><path d="M175.7,169.909a40.161,40.161,0,0,1,39.776,40.136v19.683H135.928V210.045A40.161,40.161,0,0,1,175.7,169.909Z" transform="translate(-52.525 -83.146)" fill="#fff"/><path d="M175.7,169.909a40.161,40.161,0,0,1,39.776,40.136v19.683H135.928V210.045A40.161,40.161,0,0,1,175.7,169.909Z" transform="translate(-52.525 -83.146)" fill="none" stroke="#4550e5" stroke-linecap="round" stroke-linejoin="round" stroke-width="3.485"/><path d="M178.774,153.086c-15.4-2.566-34.233-3.079-30.795,14.114,1.565,7.9,5.338,7.981,30.795,21.813,25.457-13.832,29.2-13.909,30.795-21.813C213.007,150.006,194.171,150.52,178.774,153.086Z" transform="translate(-55.595 -78.358)" fill="#fff" stroke="#4550e5" stroke-linecap="round" stroke-linejoin="round" stroke-width="3.485"/><path d="M179.132,153.084c-12.113-2.027-26.381-2.772-30.2,5.389,3.054,7.288,5.825,8.828,30.2,17.707,24.379-8.879,27.151-10.419,30.2-17.707C205.487,150.364,191.245,151.057,179.132,153.084Z" transform="translate(-55.954 -78.356)" fill="#fff" stroke="#4550e5" stroke-linecap="round" stroke-linejoin="round" stroke-width="3.485"/><path d="M173.151,186.012a72.623,72.623,0,0,1,4.645,26.252" transform="translate(-62.341 -87.392)" fill="none" stroke="#4550e5" stroke-linecap="round" stroke-linejoin="round" stroke-width="3.485"/><path d="M195.715,160.534v10.624a12.01,12.01,0,0,1-1.463,5.8l-7.519,14.371-7.545-14.371a12.292,12.292,0,0,1-1.437-5.8V160.534Z" transform="translate(-63.555 -80.673)" fill="#fff"/><path d="M195.715,160.534v10.624a12.01,12.01,0,0,1-1.463,5.8l-7.519,14.371-7.545-14.371a12.292,12.292,0,0,1-1.437-5.8V160.534Z" transform="translate(-63.555 -80.673)" fill="none" stroke="#4550e5" stroke-linecap="round" stroke-linejoin="round" stroke-width="3.485"/><path d="M205.084,186.012a72.624,72.624,0,0,0-4.645,26.252" transform="translate(-69.537 -87.392)" fill="none" stroke="#4550e5" stroke-linecap="round" stroke-linejoin="round" stroke-width="3.485"/><path d="M179.494,270.321h8.982a6.416,6.416,0,0,1,6.416,6.416h0a6.416,6.416,0,0,1-6.416,6.416h-8.982Z" transform="translate(-64.014 -109.625)" fill="#fff" stroke="#4550e5" stroke-linecap="round" stroke-linejoin="round" stroke-width="3.485"/><line y1="22.121" transform="translate(98.799 122.819)" stroke-width="3.485" stroke="#4550e5" stroke-linecap="round" stroke-linejoin="round" fill="none"/><path d="M135.928,232.619V244.4c0,14.987,10.573,29.435,32.078,29.435V261a2.566,2.566,0,0,0-2.566-2.566A13.7,13.7,0,0,1,151.325,244.4V232.157" transform="translate(-52.525 -99.561)" fill="#fff" stroke="#4550e5" stroke-linecap="round" stroke-linejoin="round" stroke-width="3.485"/><path d="M204.583,112.449v-6.416a25.662,25.662,0,0,0-51.324,0v6.416a5.132,5.132,0,0,0,0,10.265h.308a25.662,25.662,0,0,0,50.709,0h.308a5.132,5.132,0,1,0,0-10.265Z" transform="translate(-55.742 -59.534)" fill="#fff" stroke="#4550e5" stroke-linecap="round" stroke-linejoin="round" stroke-width="3.485"/><circle cx="3.208" cy="3.208" r="3.208" transform="translate(105.215 60.614)" fill="#d6daff"/><circle cx="3.208" cy="3.208" r="3.208" transform="translate(134.727 60.614)" fill="#d6daff"/><path d="M194.891,147.6a11.086,11.086,0,0,1-15.4,0" transform="translate(-64.014 -77.264)" fill="none" stroke="#4550e5" stroke-linecap="round" stroke-linejoin="round" stroke-width="3.485"/><path d="M178.479,126.511a4.183,4.183,0,0,0-7.7,0" transform="translate(-61.716 -71.03)" fill="none" stroke="#4550e5" stroke-linecap="round" stroke-linejoin="round" stroke-width="3.485"/><path d="M206.362,126.511a4.183,4.183,0,0,0-7.7,0" transform="translate(-69.069 -71.03)" fill="none" stroke="#4550e5" stroke-linecap="round" stroke-linejoin="round" stroke-width="3.485"/><path d="M176.365,73.192c-18.528,0-26.252,13.524-26.252,26.227v10.727c7.7,0,7.7-9.264,7.7-9.264s18.528,3.079,30.795-6.185c0,0,7.7,15.4,20.094,15.4V99.316c0-15.526-3.285-21.608-18.528-21.608C190.274,77.708,188.709,73.192,176.365,73.192Z" transform="translate(-56.266 -57.641)" fill="#fff"/><path d="M176.365,73.192c-18.528,0-26.252,13.524-26.252,26.227v10.727c7.7,0,7.7-9.264,7.7-9.264s18.528,3.079,30.795-6.185c0,0,7.7,15.4,20.094,15.4V99.316c0-15.526-3.285-21.608-18.528-21.608C190.274,77.708,188.709,73.192,176.365,73.192Z" transform="translate(-56.266 -57.641)" fill="none" stroke="#4550e5" stroke-linecap="round" stroke-linejoin="round" stroke-width="3.485"/><path d="M173.133,131.118h-8.366a6.287,6.287,0,0,1-6.185-6.313v-5.132a2.566,2.566,0,0,1,2.566-2.566h15.6a3.079,3.079,0,0,1,3.054,3.439l-.539,4.953a6.313,6.313,0,0,1-6.13,5.619Z" transform="translate(-58.499 -69.221)" fill="none" stroke="#4550e5" stroke-linecap="round" stroke-linejoin="round" stroke-width="3.485"/><path d="M199.151,131.118h8.366a6.287,6.287,0,0,0,6.185-6.313v-5.132a2.566,2.566,0,0,0-2.566-2.566h-15.6a3.105,3.105,0,0,0-3.079,3.439l.565,4.953a6.287,6.287,0,0,0,6.129,5.619Z" transform="translate(-67.427 -69.221)" fill="none" stroke="#4550e5" stroke-linecap="round" stroke-linejoin="round" stroke-width="3.485"/><line x2="4.08" transform="translate(121.126 52.915)" stroke-width="3.485" stroke="#4550e5" stroke-linecap="round" stroke-linejoin="round" fill="none"/><path d="M177.542,55.974c-17.117,0-34.644,12.113-34.644,39.776h5.132c0-24.584,12.831-33.361,29.512-34.644,16.68,1.283,29.512,10.111,29.512,34.644h5.132C212.186,68.087,194.659,56,177.542,55.974Z" transform="translate(-54.364 -53.1)" fill="#fff" stroke="#4550e5" stroke-linecap="round" stroke-linejoin="round" stroke-width="3.485"/><path d="M141.155,110h7.7a2.566,2.566,0,0,1,2.566,2.566v21.813a2.566,2.566,0,0,1-2.566,2.566h-7.7Z" transform="translate(-53.904 -67.347)" fill="#d6daff" stroke="#4550e5" stroke-linecap="round" stroke-linejoin="round" stroke-width="3.485"/><path d="M137.479,136.942c-5.671,0-10.265-6.031-10.265-13.473S131.808,110,137.479,110Z" transform="translate(-50.228 -67.347)" fill="#fff"/><path d="M137.479,136.942c-5.671,0-10.265-6.031-10.265-13.473S131.808,110,137.479,110Z" transform="translate(-50.228 -67.347)" fill="none" stroke="#4550e5" stroke-linejoin="round" stroke-width="3.485"/><path d="M0,0H7.7a2.566,2.566,0,0,1,2.566,2.566V24.379A2.566,2.566,0,0,1,7.7,26.945H0Z" transform="translate(159.106 69.596) rotate(180)" fill="#d6daff" stroke="#4550e5" stroke-linecap="round" stroke-linejoin="round" stroke-width="3.485"/><path d="M238.744,136.942c5.671,0,10.265-6.031,10.265-13.473S244.416,110,238.744,110Z" transform="translate(-79.639 -67.347)" fill="#fff"/><path d="M238.744,136.942c5.671,0,10.265-6.031,10.265-13.473S244.416,110,238.744,110Z" transform="translate(-79.639 -67.347)" fill="none" stroke="#4550e5" stroke-linejoin="round" stroke-width="3.485"/><path d="M200.592,57.049a34.439,34.439,0,0,0-35.67,0,4.687,4.687,0,1,0,4.876,8.007,25.021,25.021,0,0,1,25.919,0,4.645,4.645,0,0,0,4.876-7.878Z" transform="translate(-59.578 -52.071)" fill="#d6daff"/><path d="M200.592,57.049a34.439,34.439,0,0,0-35.67,0,4.687,4.687,0,1,0,4.876,8.007,25.021,25.021,0,0,1,25.919,0,4.645,4.645,0,0,0,4.876-7.878Z" transform="translate(-59.578 -52.071)" fill="none" stroke="#4550e5" stroke-linecap="round" stroke-linejoin="round" stroke-width="3.485"/><line y1="1.565" transform="translate(148.43 122.819)" stroke-width="3.485" stroke="#4550e5" stroke-linecap="round" stroke-linejoin="round" fill="none"/><line y1="23.661" transform="translate(148.43 122.819)" stroke-width="3.485" stroke="#4550e5" stroke-linecap="round" stroke-linejoin="round" fill="none"/><ellipse cx="38.493" cy="3.849" rx="38.493" ry="3.849" transform="translate(0.77 164.546)" fill="#f0f2ff"/><ellipse cx="50.041" cy="3.849" rx="50.041" ry="3.849" transform="translate(100.852 172.244)" fill="#f0f2ff"/><path d="M114.935,170.861l-44.37,9.11a2.566,2.566,0,0,1-3.028-2L64.842,164.83A2.566,2.566,0,0,1,65.2,162.9a2.72,2.72,0,0,1,1.617-1.1l44.4-9.11Z" transform="translate(-33.765 -78.605)" fill="#fff" stroke="#4550e5" stroke-linecap="round" stroke-linejoin="round" stroke-width="3.485"/><path d="M87.935,203.637l1.976-1.925v-8.9" transform="translate(-39.869 -89.184)" fill="none" stroke="#4550e5" stroke-linecap="round" stroke-linejoin="round" stroke-width="3.485"/><path d="M80.7,217.793l-4.927-3.721,4.645-6.159a3.087,3.087,0,0,1,4.927,3.721Z" transform="translate(-36.662 -92.844)" fill="#d6daff" stroke="#4550e5" stroke-linecap="round" stroke-linejoin="round" stroke-width="3.485"/><line x1="34.439" y1="14.345" transform="translate(1.745 103.264)" stroke-width="3.485" stroke="#4550e5" stroke-linecap="round" stroke-linejoin="round" fill="none"/><line x1="31.205" y1="12.985" transform="translate(0.18 114.068)" stroke-width="3.485" stroke="#4550e5" stroke-linecap="round" stroke-linejoin="round" fill="none"/><path d="M114.935,170.861l-44.37,9.11a2.566,2.566,0,0,1-3.028-2L64.842,164.83A2.566,2.566,0,0,1,65.2,162.9a2.72,2.72,0,0,1,1.617-1.1l44.4-9.11Z" transform="translate(-33.765 -78.605)" fill="none" stroke="#4550e5" stroke-linecap="round" stroke-linejoin="round" stroke-width="3.485"/><path d="M131.6,170.583l3.541-.744a2.566,2.566,0,0,0,1.976-3.028L134.55,153.7a2.566,2.566,0,0,0-3.054-2l-3.516.719Z" transform="translate(-50.43 -78.328)" fill="#d6daff" stroke="#4550e5" stroke-linecap="round" stroke-linejoin="round" stroke-width="3.485"/><line x2="1.232" y2="6.056" transform="translate(73.881 87.431)" stroke-width="3.485" stroke="#4550e5" stroke-linecap="round" stroke-linejoin="round" fill="none"/><line x2="1.232" y2="6.056" transform="translate(71.392 75.344)" stroke-width="3.485" stroke="#4550e5" stroke-linecap="round" stroke-linejoin="round" fill="none"/><line x2="1.232" y2="6.031" transform="translate(67.825 88.688)" stroke-width="3.485" stroke="#4550e5" stroke-linecap="round" stroke-linejoin="round" fill="none"/><line x2="1.257" y2="6.056" transform="translate(65.336 76.576)" stroke-width="3.485" stroke="#4550e5" stroke-linecap="round" stroke-linejoin="round" fill="none"/><path d="M89.007,181.227,83.439,154l8.289-3.721a2.566,2.566,0,0,1,3.541,2.9l-3,13.19,7.955,10.906a2.566,2.566,0,0,1-2.1,4.08Z" transform="translate(-38.684 -77.912)" fill="none" stroke="#4550e5" stroke-linecap="round" stroke-linejoin="round" stroke-width="3.485"/><path d="M78.762,155.076,68.5,154.152a2.566,2.566,0,0,0-2.233,4.157L75.4,169.934l-4.055,13.242a2.566,2.566,0,0,0,3.439,3.1l9.444-3.978" transform="translate(-34.007 -78.988)" fill="none" stroke="#4550e5" stroke-linecap="round" stroke-linejoin="round" stroke-width="3.485"/><path d="M62.735,169.875l-.77.154a6.956,6.956,0,0,0,2.8,13.627l.77-.154Z" transform="translate(-31.555 -83.137)" fill="#d6daff" stroke="#4550e5" stroke-linecap="round" stroke-linejoin="round" stroke-width="3.485"/><line y1="2.489" x2="12.087" transform="translate(41.496 88.457)" stroke-width="3.485" stroke="#4550e5" stroke-linecap="round" stroke-linejoin="round" fill="none"/><circle cx="7.724" cy="7.724" r="7.724" transform="translate(31.077 117.148)" fill="#d6daff" stroke="#4550e5" stroke-linecap="round" stroke-linejoin="round" stroke-width="3.485"/><path d="M77.311,220.563a3.105,3.105,0,1,1-3.079-3.079,3.1,3.1,0,0,1,3.079,3.079Z" transform="translate(-35.43 -95.692)" fill="#fff" stroke="#4550e5" stroke-linecap="round" stroke-linejoin="round" stroke-width="3.485"/><rect width="61.589" height="6.416" rx="3.208" transform="translate(7.699 159.413)" stroke-width="3.485" stroke="#4550e5" stroke-linecap="round" stroke-linejoin="round" fill="#fff"/><rect width="61.589" height="6.416" rx="3.208" transform="translate(10.265 152.998)" stroke-width="3.485" stroke="#4550e5" stroke-linecap="round" stroke-linejoin="round" fill="#fff"/><rect width="61.589" height="6.416" rx="3.208" transform="translate(7.699 146.582)" stroke-width="3.485" stroke="#4550e5" stroke-linecap="round" stroke-linejoin="round" fill="#fff"/><rect width="61.589" height="6.416" rx="3.208" transform="translate(10.265 140.167)" stroke-width="3.485" stroke="#4550e5" stroke-linecap="round" stroke-linejoin="round" fill="#fff"/><path d="M206.556,262.031h-6.185l14.756-45.345a3.08,3.08,0,0,1,2.925-2.13h3.926" transform="translate(-69.52 -94.92)" fill="#fff" stroke="#4550e5" stroke-linejoin="round" stroke-width="3.485"/><path d="M268.974,262.031h-60.2l15.4-47.475H280.2a3.054,3.054,0,0,1,2.566,1.283,3,3,0,0,1,.436,2.746Z" transform="translate(-71.735 -94.919)" fill="#fff" stroke="#4550e5" stroke-linejoin="round" stroke-width="3.485"/><path d="M268.147,279.035H205.634v7.7h56.457C265.35,286.759,268.147,284.552,268.147,279.035Z" transform="translate(-70.907 -111.923)" fill="#fff" stroke="#4550e5" stroke-linejoin="round" stroke-width="3.485"/><path d="M194.6,279.035H163.81c0,5.363,2.566,7.7,6.082,7.7H194.6Z" transform="translate(-59.878 -111.923)" fill="#fff" stroke="#4550e5" stroke-linejoin="round" stroke-width="3.485"/><path d="M263.109,241.9a3.439,3.439,0,0,1,1.642-2.9,3.567,3.567,0,0,0-2.771-1.514c-1.18,0-2.31.719-2.9.719s-1.54-.693-2.566-.667a3.721,3.721,0,0,0-3.131,1.9,7.981,7.981,0,0,0,.95,7.7c.642.924,1.411,1.95,2.412,1.925s1.309-.642,2.566-.642,1.463.642,2.566.616,1.694-.949,2.31-1.873a7.185,7.185,0,0,0,1.052-2.156A3.362,3.362,0,0,1,263.109,241.9Z" transform="translate(-83.345 -100.967)" fill="#d6daff" stroke="#4550e5" stroke-linejoin="round" stroke-width="3.485"/><line y1="1.386" x2="1.386" transform="translate(177.172 131.21)" stroke-width="3.485" stroke="#4550e5" stroke-linecap="round" stroke-linejoin="round" fill="none"/><path d="M268.974,262.031h-60.2l15.4-47.475H280.2a3.054,3.054,0,0,1,2.566,1.283,3,3,0,0,1,.436,2.746Z" transform="translate(-71.735 -94.919)" fill="none" stroke="#4550e5" stroke-linejoin="round" stroke-width="3.485"/></g></g></svg>